solid OpenSCAD_Model
  facet normal 0.002 0 0.999998
    outer loop
      vertex -45.5 -62 8
      vertex -44.5 -67 7.998
      vertex -44.5 -61 7.998
    endloop
  endfacet
  facet normal 0.002 0 0.999998
    outer loop
      vertex -44.5 -67 7.998
      vertex -45.5 -62 8
      vertex -45.5 -69 8
    endloop
  endfacet
  facet normal 0 0.001 1
    outer loop
      vertex -42.5 -69 8
      vertex -44.5 -67 7.998
      vertex -45.5 -69 8
    endloop
  endfacet
  facet normal 0.707107 0.707107 0
    outer loop
      vertex -42.5 -69 8
      vertex -43.5 -68 7.998
      vertex -44.5 -67 7.998
    endloop
  endfacet
  facet normal -0 0 1
    outer loop
      vertex -44.5 -56 7.998
      vertex -39.5 -57 7.998
      vertex -39.5 -56 7.998
    endloop
  endfacet
  facet normal 0 0 1
    outer loop
      vertex -39.5 -57 7.998
      vertex -44.5 -56 7.998
      vertex -44.5 -57 7.998
    endloop
  endfacet
  facet normal 0 -0 1
    outer loop
      vertex -43.5 -68 7.998
      vertex -43.5 -67 7.998
      vertex -44.5 -67 7.998
    endloop
  endfacet
  facet normal -0.002 0 0.999998
    outer loop
      vertex -42.5 -69 8
      vertex -42.5 -68 8
      vertex -43.5 -68 7.998
    endloop
  endfacet
  facet normal 0 0 1
    outer loop
      vertex 41.4 0 8
      vertex -20.702 -0.251999 8
      vertex 41.4 -1 8
    endloop
  endfacet
  facet normal 0 -0 1
    outer loop
      vertex -20.702 -0.251999 8
      vertex 41.4 0 8
      vertex -41.4 0 8
    endloop
  endfacet
  facet normal 0 0 1
    outer loop
      vertex 41.4 -1 8
      vertex -20.702 -0.251999 8
      vertex -20.702 -1 8
    endloop
  endfacet
  facet normal 0 -0 1
    outer loop
      vertex -47.4 -1 8
      vertex -47.4 0 8
      vertex -51.5 -1 8
    endloop
  endfacet
  facet normal 0 0 1
    outer loop
      vertex -53 -30 8
      vertex -52.5 -31 8
      vertex -52.5 -30.5 8
    endloop
  endfacet
  facet normal 0 0 1
    outer loop
      vertex -52.5 -31 8
      vertex -53 -30 8
      vertex -52.502 -60 8
    endloop
  endfacet
  facet normal -0 0 1
    outer loop
      vertex -53.5 -13.4 8
      vertex -53 -30 8
      vertex -53.2767 -13.4 8
    endloop
  endfacet
  facet normal 0 0 1
    outer loop
      vertex -53.5 -62 8
      vertex -53 -30 8
      vertex -53.5 -13.4 8
    endloop
  endfacet
  facet normal 0 0 1
    outer loop
      vertex -51.502 -61 8
      vertex -53.5 -62 8
      vertex -45.5 -62 8
    endloop
  endfacet
  facet normal 0 0 1
    outer loop
      vertex -52.502 -60 8
      vertex -53.5 -62 8
      vertex -51.502 -61 8
    endloop
  endfacet
  facet normal 0 0 1
    outer loop
      vertex -53 -30 8
      vertex -53.5 -62 8
      vertex -52.502 -60 8
    endloop
  endfacet
  facet normal 0 0 1
    outer loop
      vertex -53.3767 -7.4 8
      vertex -53.5 0 8
      vertex -53.5 -7.4 8
    endloop
  endfacet
  facet normal 0 0 1
    outer loop
      vertex -53.5 -13.4 8
      vertex -53.3767 -7.4 8
      vertex -53.5 -7.4 8
    endloop
  endfacet
  facet normal 0 0 1
    outer loop
      vertex -53.3767 -7.4 8
      vertex -53.5 -13.4 8
      vertex -53.2767 -13.4 8
    endloop
  endfacet
  facet normal -0 0 1
    outer loop
      vertex -52.5 -7.4 8
      vertex -51.5 -13.4 8
      vertex -51.5 -7.4 8
    endloop
  endfacet
  facet normal 0 0 1
    outer loop
      vertex -51.5 -13.4 8
      vertex -52.5 -7.4 8
      vertex -52.5 -13.4 8
    endloop
  endfacet
  facet normal -0 0 1
    outer loop
      vertex 39.5 -56 8
      vertex 44.5 -57 8
      vertex 44.5 -56 8
    endloop
  endfacet
  facet normal 0 0 1
    outer loop
      vertex 44.5 -57 8
      vertex 39.5 -56 8
      vertex 39.5 -57 8
    endloop
  endfacet
  facet normal 0.000285632 0.00171436 0.999998
    outer loop
      vertex -45.5 -62 8
      vertex -44.5 -61 7.998
      vertex -51.502 -61 8
    endloop
  endfacet
  facet normal 7.01804e-05 7.01804e-05 1
    outer loop
      vertex -52.5 -30.5 8
      vertex -52.5 -2.002 7.998
      vertex -53 -30 8
    endloop
  endfacet
  facet normal 0 0 0
    outer loop
      vertex -52.5 -1 7.998
      vertex -52.5 -2.002 7.998
      vertex -52.5 -2 7.998
    endloop
  endfacet
  facet normal 0.00399997 -0 0.999992
    outer loop
      vertex -52.5 -2.002 7.998
      vertex -52.5 -1 7.998
      vertex -53 -30 8
    endloop
  endfacet
  facet normal 0 -0.002 0.999998
    outer loop
      vertex 53.498 0 8
      vertex 47.398 0 8
      vertex 47.398 -1 7.998
    endloop
  endfacet
  facet normal 0 -0.002 0.999998
    outer loop
      vertex -52.5 -1 7.998
      vertex -47.4 0 8
      vertex -53.5 0 8
    endloop
  endfacet
  facet normal -1 0 0
    outer loop
      vertex -52.5 -2.002 7.998
      vertex -52.5 -6.53318 10.3905
      vertex -52.5 -6.50001 10.55
    endloop
  endfacet
  facet normal -1 0 0
    outer loop
      vertex -52.5 -2.002 7.998
      vertex -52.5 -7.00001 8.39999
      vertex -52.5 -6.53318 10.3905
    endloop
  endfacet
  facet normal -1 0 0
    outer loop
      vertex -52.5 -2.002 7.998
      vertex -52.5 -7.4 8
      vertex -52.5 -7.00001 8.39999
    endloop
  endfacet
  facet normal -1 0 0
    outer loop
      vertex -52.5 -2.002 7.998
      vertex -52.5 -13.4 8
      vertex -52.5 -7.4 8
    endloop
  endfacet
  facet normal -1 0 0
    outer loop
      vertex -52.5 -13.8 8.39999
      vertex -52.5 -14.2668 10.3905
      vertex -52.5 -13.8 9.3168
    endloop
  endfacet
  facet normal -1 -0 0
    outer loop
      vertex -52.5 -14.3 10.55
      vertex -52.5 -30.5 8
      vertex -52.5 -14.3 11.6
    endloop
  endfacet
  facet normal -1 -0 0
    outer loop
      vertex -52.5 -14.2668 10.3905
      vertex -52.5 -30.5 8
      vertex -52.5 -14.3 10.55
    endloop
  endfacet
  facet normal -1 -0 0
    outer loop
      vertex -52.5 -13.8 8.39999
      vertex -52.5 -30.5 8
      vertex -52.5 -14.2668 10.3905
    endloop
  endfacet
  facet normal -1 0 0
    outer loop
      vertex -52.5 -13.4 8
      vertex -52.5 -30.5 8
      vertex -52.5 -13.8 8.39999
    endloop
  endfacet
  facet normal -1 0 0
    outer loop
      vertex -52.5 -30.5 8
      vertex -52.5 -13.4 8
      vertex -52.5 -2.002 7.998
    endloop
  endfacet
  facet normal -1 0 0
    outer loop
      vertex -52.5 -2.002 7.998
      vertex -52.5 -2 11.998
      vertex -52.5 -2 7.998
    endloop
  endfacet
  facet normal -1 0 0
    outer loop
      vertex -52.5 -6.50001 10.55
      vertex -52.5 -2 11.998
      vertex -52.5 -2.002 7.998
    endloop
  endfacet
  facet normal -1 0 0
    outer loop
      vertex -52.5 -6.50001 11.6
      vertex -52.5 -2 11.998
      vertex -52.5 -6.50001 10.55
    endloop
  endfacet
  facet normal -1 -0 0
    outer loop
      vertex -52.5 -2 11.998
      vertex -52.5 -6.50001 11.6
      vertex -52.5 -6.89802 11.998
    endloop
  endfacet
  facet normal -1 0 0
    outer loop
      vertex -52.5 -6.53318 10.3905
      vertex -52.5 -7.00001 8.39999
      vertex -52.5 -7.00001 9.3168
    endloop
  endfacet
  facet normal -1 0 0
    outer loop
      vertex -52.5 -31 10
      vertex -52.5 -14.3 11.6
      vertex -52.5 -30.5 8
    endloop
  endfacet
  facet normal -1 0 0
    outer loop
      vertex -52.5 -31 10
      vertex -52.5 -30.5 8
      vertex -52.5 -31 8
    endloop
  endfacet
  facet normal -1 0 0
    outer loop
      vertex -52.5 -31 11.998
      vertex -52.5 -14.3 11.6
      vertex -52.5 -31 10
    endloop
  endfacet
  facet normal -1 0 0
    outer loop
      vertex -52.5 -14.3 11.6
      vertex -52.5 -31 11.998
      vertex -52.5 -13.902 11.998
    endloop
  endfacet
  facet normal -1 -0 -0
    outer loop
      vertex -52.5 -31 11.998
      vertex -52.5 -31 10
      vertex -52.5 -60 12
    endloop
  endfacet
  facet normal -0.00199993 0.00819971 0.999964
    outer loop
      vertex -51.5 -1 8
      vertex -47.4 0 8
      vertex -52.5 -1 7.998
    endloop
  endfacet
  facet normal -0.002 0 0.999998
    outer loop
      vertex -51.5 -1 8
      vertex -52.5 -1 7.998
      vertex -52.5 -2 7.998
    endloop
  endfacet
  facet normal -1 0 0
    outer loop
      vertex -44.5 -67 7.998
      vertex -44.5 -61 11.998
      vertex -44.5 -61 7.998
    endloop
  endfacet
  facet normal -1 -0 0
    outer loop
      vertex -44.5 -61 11.998
      vertex -44.5 -67 7.998
      vertex -44.5 -67 11.998
    endloop
  endfacet
  facet normal -1 0 0
    outer loop
      vertex -44.5 -56 2
      vertex -44.5 -57 7
      vertex -44.5 -56 7.998
    endloop
  endfacet
  facet normal -1 0 0
    outer loop
      vertex -44.5 -60 2
      vertex -44.5 -57 7
      vertex -44.5 -56 2
    endloop
  endfacet
  facet normal -1 -0 0
    outer loop
      vertex -44.5 -57 7
      vertex -44.5 -60 2
      vertex -44.5 -60 7
    endloop
  endfacet
  facet normal -1 -0 0
    outer loop
      vertex -44.5 -56 7.998
      vertex -44.5 -57 7
      vertex -44.5 -57 7.998
    endloop
  endfacet
  facet normal -1 0 0
    outer loop
      vertex 39.5 -57 6.99
      vertex 39.5 -56 8
      vertex 39.5 -56 6.99
    endloop
  endfacet
  facet normal -1 -0 0
    outer loop
      vertex 39.5 -56 8
      vertex 39.5 -57 6.99
      vertex 39.5 -57 8
    endloop
  endfacet
  facet normal 0 -1 0
    outer loop
      vertex 43.5 -57 6.99
      vertex 39.5 -57 8
      vertex 39.5 -57 6.99
    endloop
  endfacet
  facet normal 0 -1 0
    outer loop
      vertex 39.5 -57 8
      vertex 43.5 -57 6.99
      vertex 44.5 -57 8
    endloop
  endfacet
  facet normal 0 -1 -0
    outer loop
      vertex 44.5 -57 8
      vertex 43.5 -57 6.99
      vertex 44.5 -57 6.99
    endloop
  endfacet
  facet normal 0 -1 0
    outer loop
      vertex -43.5 -57 7
      vertex -44.5 -57 7.998
      vertex -44.5 -57 7
    endloop
  endfacet
  facet normal 0 -1 0
    outer loop
      vertex -44.5 -57 7.998
      vertex -43.5 -57 7
      vertex -39.5 -57 7.998
    endloop
  endfacet
  facet normal 0 -1 0
    outer loop
      vertex -43.5 -57 7
      vertex -39.5 -57 6.998
      vertex -39.5 -57 7.998
    endloop
  endfacet
  facet normal 0 -1 0
    outer loop
      vertex -43.5 -57 2
      vertex -0.0019989 -57 6.994
      vertex -19.752 -57 6.996
    endloop
  endfacet
  facet normal 0 -1 0
    outer loop
      vertex -43.5 -57 2
      vertex -19.752 -57 6.996
      vertex -39.5 -57 6.998
    endloop
  endfacet
  facet normal 0 -1 0
    outer loop
      vertex -43.5 -57 2
      vertex -39.5 -57 6.998
      vertex -43.5 -57 7
    endloop
  endfacet
  facet normal 0 -1 0
    outer loop
      vertex 43.5 -57 2
      vertex -0.0019989 -57 6.994
      vertex -43.5 -57 2
    endloop
  endfacet
  facet normal 0 -1 0
    outer loop
      vertex -0.0019989 -57 6.994
      vertex 43.5 -57 2
      vertex 19.748 -57 6.992
    endloop
  endfacet
  facet normal 0 -1 0
    outer loop
      vertex 19.748 -57 6.992
      vertex 43.5 -57 2
      vertex 39.5 -57 6.99
    endloop
  endfacet
  facet normal 0 -1 0
    outer loop
      vertex 39.5 -57 6.99
      vertex 43.5 -57 2
      vertex 43.5 -57 6.99
    endloop
  endfacet
  facet normal 0 1 0
    outer loop
      vertex 44.5 -56 8
      vertex 39.5 -56 6.99
      vertex 39.5 -56 8
    endloop
  endfacet
  facet normal 0 1 0
    outer loop
      vertex 44.5 -56 2
      vertex -0.0019989 -56 6.984
      vertex 19.748 -56 6.986
    endloop
  endfacet
  facet normal 0 1 0
    outer loop
      vertex -0.0019989 -56 6.984
      vertex -44.5 -56 2
      vertex -19.752 -56 6.982
    endloop
  endfacet
  facet normal 0 1 0
    outer loop
      vertex -0.0019989 -56 6.984
      vertex 44.5 -56 2
      vertex -44.5 -56 2
    endloop
  endfacet
  facet normal 0 1 0
    outer loop
      vertex 39.5 -56 6.99
      vertex 44.5 -56 2
      vertex 19.748 -56 6.986
    endloop
  endfacet
  facet normal 0 1 -0
    outer loop
      vertex 44.5 -56 2
      vertex 39.5 -56 6.99
      vertex 44.5 -56 8
    endloop
  endfacet
  facet normal 0 1 -0
    outer loop
      vertex -39.5 -56 6.98
      vertex -44.5 -56 7.998
      vertex -39.5 -56 7.998
    endloop
  endfacet
  facet normal 0 1 0
    outer loop
      vertex -39.5 -56 6.98
      vertex -44.5 -56 2
      vertex -44.5 -56 7.998
    endloop
  endfacet
  facet normal 0 1 0
    outer loop
      vertex -19.752 -56 6.982
      vertex -44.5 -56 2
      vertex -39.5 -56 6.98
    endloop
  endfacet
  facet normal 1 -0 0
    outer loop
      vertex 44.5 -67 11.996
      vertex 44.5 -61 7.996
      vertex 44.5 -61 11.996
    endloop
  endfacet
  facet normal 1 0 0
    outer loop
      vertex 44.5 -61 7.996
      vertex 44.5 -67 11.996
      vertex 44.5 -67 7.996
    endloop
  endfacet
  facet normal 1 0 0
    outer loop
      vertex 44.5 -57 6.99
      vertex 44.5 -56 8
      vertex 44.5 -57 8
    endloop
  endfacet
  facet normal 1 0 0
    outer loop
      vertex 44.5 -56 8
      vertex 44.5 -57 6.99
      vertex 44.5 -56 2
    endloop
  endfacet
  facet normal 1 0 0
    outer loop
      vertex 44.5 -60 2
      vertex 44.5 -57 6.99
      vertex 44.5 -60 7
    endloop
  endfacet
  facet normal 1 0 0
    outer loop
      vertex 44.5 -57 6.99
      vertex 44.5 -60 2
      vertex 44.5 -56 2
    endloop
  endfacet
  facet normal -0.00399995 0.00333329 0.999986
    outer loop
      vertex 44.5 -60 7
      vertex 44.5 -57 6.99
      vertex 43.5 -60 6.996
    endloop
  endfacet
  facet normal 0 1 0
    outer loop
      vertex -44.5 -60 7
      vertex -43.5 -60 11.998
      vertex -43.5 -60 7
    endloop
  endfacet
  facet normal 0 1 0
    outer loop
      vertex -43.5 -60 11.998
      vertex -44.5 -60 7
      vertex -51.5 -60 11.998
    endloop
  endfacet
  facet normal 0 1 0
    outer loop
      vertex -44.5 -60 7
      vertex -51.5 -60 7
      vertex -51.5 -60 11.998
    endloop
  endfacet
  facet normal 0 1 0
    outer loop
      vertex -49.5 -60 2
      vertex -44.5 -60 7
      vertex -44.5 -60 2
    endloop
  endfacet
  facet normal 0 1 0
    outer loop
      vertex -44.5 -60 7
      vertex -49.5 -60 2
      vertex -51.5 -60 7
    endloop
  endfacet
  facet normal 0 1 -0
    outer loop
      vertex 49.5 -60 2
      vertex 44.5 -60 7
      vertex 51.498 -60 7
    endloop
  endfacet
  facet normal 0 1 0
    outer loop
      vertex 44.5 -60 7
      vertex 49.5 -60 2
      vertex 44.5 -60 2
    endloop
  endfacet
  facet normal 0 1 0
    outer loop
      vertex 44.5 -60 7
      vertex 51.5 -60 11.998
      vertex 51.498 -60 7
    endloop
  endfacet
  facet normal 0 1 0
    outer loop
      vertex 51.5 -60 11.998
      vertex 44.5 -60 7
      vertex 43.5 -60 11.996
    endloop
  endfacet
  facet normal 0 1 0
    outer loop
      vertex 43.5 -60 11.996
      vertex 44.5 -60 7
      vertex 43.5 -60 6.996
    endloop
  endfacet
  facet normal -0 0 1
    outer loop
      vertex -43.5 -57 2
      vertex 43.5 -68 2
      vertex 43.5 -57 2
    endloop
  endfacet
  facet normal 0 0 1
    outer loop
      vertex 43.5 -68 2
      vertex -43.5 -57 2
      vertex -43.5 -68 2
    endloop
  endfacet
  facet normal -0 0 1
    outer loop
      vertex -49.5 -4 2
      vertex -31.75 -5 2
      vertex -31.75 -4 2
    endloop
  endfacet
  facet normal 0 0 1
    outer loop
      vertex -31.75 -5 2
      vertex -47.55 -33.026 2
      vertex -44.5 -56 2
    endloop
  endfacet
  facet normal 0 0 1
    outer loop
      vertex -31.75 -5 2
      vertex -47.55 -32.05 2
      vertex -47.55 -33.026 2
    endloop
  endfacet
  facet normal 0 0 1
    outer loop
      vertex -31.75 -5 2
      vertex -49.5 -4 2
      vertex -47.55 -32.05 2
    endloop
  endfacet
  facet normal 0 0 1
    outer loop
      vertex -47.55 -32.05 2
      vertex -49.5 -4 2
      vertex -49.5 -32.05 2
    endloop
  endfacet
  facet normal -0 0 1
    outer loop
      vertex -49.5 -33.026 2
      vertex -44.5 -56 2
      vertex -47.55 -33.026 2
    endloop
  endfacet
  facet normal 0 0 1
    outer loop
      vertex -44.5 -56 2
      vertex -49.5 -33.026 2
      vertex -49.5 -60 2
    endloop
  endfacet
  facet normal 0 0 1
    outer loop
      vertex -44.5 -56 2
      vertex -49.5 -60 2
      vertex -44.5 -60 2
    endloop
  endfacet
  facet normal 0 0 1
    outer loop
      vertex 32.236 -4 2
      vertex 1.075 -8.8 2
      vertex 32.236 -5 2
    endloop
  endfacet
  facet normal 0 0 1
    outer loop
      vertex 32.236 -4 2
      vertex 0.332192 -7.77761 2
      vertex 1.075 -8.8 2
    endloop
  endfacet
  facet normal -0 0 1
    outer loop
      vertex -30.876 -5 2
      vertex -0.869693 -8.16813 2
      vertex -30.876 -4 2
    endloop
  endfacet
  facet normal 0 0 1
    outer loop
      vertex 0.332192 -7.77761 2
      vertex -30.876 -4 2
      vertex -0.869693 -8.16813 2
    endloop
  endfacet
  facet normal -0 0 1
    outer loop
      vertex -30.876 -4 2
      vertex 0.332192 -7.77761 2
      vertex 32.236 -4 2
    endloop
  endfacet
  facet normal 0 0 1
    outer loop
      vertex 49.5 -4 2
      vertex 47.55 -32.05 2
      vertex 49.5 -32.05 2
    endloop
  endfacet
  facet normal 0 0 1
    outer loop
      vertex 0.332192 -9.82238 2
      vertex 47.55 -33.026 2
      vertex 47.55 -32.05 2
    endloop
  endfacet
  facet normal -0 0 1
    outer loop
      vertex 33.212 -5 2
      vertex 47.55 -32.05 2
      vertex 49.5 -4 2
    endloop
  endfacet
  facet normal 0 0 1
    outer loop
      vertex 33.212 -5 2
      vertex 49.5 -4 2
      vertex 33.212 -4 2
    endloop
  endfacet
  facet normal -0 0 1
    outer loop
      vertex 32.236 -5 2
      vertex 47.55 -32.05 2
      vertex 33.212 -5 2
    endloop
  endfacet
  facet normal -0 0 1
    outer loop
      vertex 0.332192 -9.82238 2
      vertex 47.55 -32.05 2
      vertex 32.236 -5 2
    endloop
  endfacet
  facet normal 0 0 1
    outer loop
      vertex 0.332192 -9.82238 2
      vertex 32.236 -5 2
      vertex 1.075 -8.8 2
    endloop
  endfacet
  facet normal 0 0 1
    outer loop
      vertex 47.55 -33.026 2
      vertex 0.332192 -9.82238 2
      vertex 44.5 -56 2
    endloop
  endfacet
  facet normal 0 0 1
    outer loop
      vertex -44.5 -56 2
      vertex 0.332192 -9.82238 2
      vertex -0.869693 -9.43187 2
    endloop
  endfacet
  facet normal 0 0 1
    outer loop
      vertex -0.869693 -8.16813 2
      vertex -30.876 -5 2
      vertex -0.869693 -9.43187 2
    endloop
  endfacet
  facet normal 0 0 1
    outer loop
      vertex -44.5 -56 2
      vertex -0.869693 -9.43187 2
      vertex -30.876 -5 2
    endloop
  endfacet
  facet normal 0 0 1
    outer loop
      vertex -44.5 -56 2
      vertex -30.876 -5 2
      vertex -31.75 -5 2
    endloop
  endfacet
  facet normal 0 0 1
    outer loop
      vertex 0.332192 -9.82238 2
      vertex -44.5 -56 2
      vertex 44.5 -56 2
    endloop
  endfacet
  facet normal 0 0 1
    outer loop
      vertex 44.5 -56 2
      vertex 49.5 -33.026 2
      vertex 47.55 -33.026 2
    endloop
  endfacet
  facet normal 0 0 1
    outer loop
      vertex 49.5 -33.026 2
      vertex 44.5 -56 2
      vertex 49.5 -60 2
    endloop
  endfacet
  facet normal 0 0 1
    outer loop
      vertex 49.5 -60 2
      vertex 44.5 -56 2
      vertex 44.5 -60 2
    endloop
  endfacet
  facet normal 0 1 0
    outer loop
      vertex -51.5 -1 11.998
      vertex -41.4 -1 7.998
      vertex -47.4 -1 8
    endloop
  endfacet
  facet normal 0 1 -0
    outer loop
      vertex -41.4 -1 7
      vertex -47.4 -1 8
      vertex -41.4 -1 7.998
    endloop
  endfacet
  facet normal 0 1 0
    outer loop
      vertex -47.4 -1 8
      vertex -41.4 -1 7
      vertex -47.4 -1 7
    endloop
  endfacet
  facet normal 0 1 0
    outer loop
      vertex 51.5 -1 11.998
      vertex 47.398 -1 7.998
      vertex 41.4 -1 8
    endloop
  endfacet
  facet normal 0 1 -0
    outer loop
      vertex 47.398 -1 7
      vertex 41.4 -1 8
      vertex 47.398 -1 7.998
    endloop
  endfacet
  facet normal 0 1 0
    outer loop
      vertex 41.4 -1 8
      vertex 47.398 -1 7
      vertex 41.4 -1 7
    endloop
  endfacet
  facet normal 0 1 0
    outer loop
      vertex 47.398 -1 7.998
      vertex 51.5 -1 11.998
      vertex 51.5 -1 8
    endloop
  endfacet
  facet normal 0 1 0
    outer loop
      vertex -20.702 -1 8
      vertex 51.5 -1 11.998
      vertex 41.4 -1 8
    endloop
  endfacet
  facet normal 0 1 0
    outer loop
      vertex 51.5 -1 11.998
      vertex -20.702 -1 8
      vertex -51.5 -1 11.998
    endloop
  endfacet
  facet normal 0 1 -0
    outer loop
      vertex -41.4 -1 7.998
      vertex -51.5 -1 11.998
      vertex -20.702 -1 8
    endloop
  endfacet
  facet normal 0 1 0
    outer loop
      vertex -51.5 -1 11.998
      vertex -47.4 -1 8
      vertex -51.5 -1 8
    endloop
  endfacet
  facet normal -1 0 0
    outer loop
      vertex -45.5 -69 0
      vertex -45.5 -62 5
      vertex -45.5 -59 0
    endloop
  endfacet
  facet normal -1 0 0
    outer loop
      vertex -45.5 -69 8
      vertex -45.5 -62 5
      vertex -45.5 -69 0
    endloop
  endfacet
  facet normal -1 0 0
    outer loop
      vertex -45.5 -62 5
      vertex -45.5 -69 8
      vertex -45.5 -62 8
    endloop
  endfacet
  facet normal 0 1 0
    outer loop
      vertex 53.498 0 8
      vertex 47.398 0 7
      vertex 47.398 0 8
    endloop
  endfacet
  facet normal 0 1 0
    outer loop
      vertex 53.498 0 5
      vertex 41.4 0 7
      vertex 47.398 0 7
    endloop
  endfacet
  facet normal 0 1 0
    outer loop
      vertex 41.4 0 7
      vertex -0.0019989 0 5
      vertex -41.4 0 7
    endloop
  endfacet
  facet normal 0 1 0
    outer loop
      vertex 41.4 0 7
      vertex 53.498 0 5
      vertex -0.0019989 0 5
    endloop
  endfacet
  facet normal 0 1 -0
    outer loop
      vertex 53.498 0 5
      vertex 47.398 0 7
      vertex 53.498 0 8
    endloop
  endfacet
  facet normal 0 1 -0
    outer loop
      vertex 41.4 0 7
      vertex -41.4 0 8
      vertex 41.4 0 8
    endloop
  endfacet
  facet normal 0 1 0
    outer loop
      vertex -41.4 0 8
      vertex 41.4 0 7
      vertex -41.4 0 7
    endloop
  endfacet
  facet normal 0 1 -0
    outer loop
      vertex -47.4 0 7
      vertex -53.5 0 8
      vertex -47.4 0 8
    endloop
  endfacet
  facet normal 0 1 -0
    outer loop
      vertex -26.75 0 5
      vertex -41.4 0 7
      vertex -0.0019989 0 5
    endloop
  endfacet
  facet normal 0 1 0
    outer loop
      vertex -53.5 0 5
      vertex -41.4 0 7
      vertex -26.75 0 5
    endloop
  endfacet
  facet normal 0 1 0
    outer loop
      vertex -47.4 0 7
      vertex -53.5 0 5
      vertex -53.5 0 8
    endloop
  endfacet
  facet normal 0 1 0
    outer loop
      vertex -41.4 0 7
      vertex -53.5 0 5
      vertex -47.4 0 7
    endloop
  endfacet
  facet normal 1 -0 0
    outer loop
      vertex -47.4 -1 8
      vertex -47.4 0 7
      vertex -47.4 0 8
    endloop
  endfacet
  facet normal 1 0 0
    outer loop
      vertex -47.4 0 7
      vertex -47.4 -1 8
      vertex -47.4 -1 7
    endloop
  endfacet
  facet normal 1 -0 0
    outer loop
      vertex 41.4 -1 8
      vertex 41.4 0 7
      vertex 41.4 0 8
    endloop
  endfacet
  facet normal 1 0 0
    outer loop
      vertex 41.4 0 7
      vertex 41.4 -1 8
      vertex 41.4 -1 7
    endloop
  endfacet
  facet normal 0.781021 0 -0.624505
    outer loop
      vertex 53.498 -31 5
      vertex 53.498 -62 5
      vertex 49.5 -59 0
    endloop
  endfacet
  facet normal 0 -0.857493 -0.514496
    outer loop
      vertex -49.5 -59 0
      vertex -45.5 -62 5
      vertex -53.5 -62 5
    endloop
  endfacet
  facet normal 0 -0.857493 -0.514496
    outer loop
      vertex -45.5 -62 5
      vertex -49.5 -59 0
      vertex -45.5 -59 0
    endloop
  endfacet
  facet normal -0 -0.857493 -0.514496
    outer loop
      vertex 49.5 -59 0
      vertex 45.5 -62 5
      vertex 45.5 -59 0
    endloop
  endfacet
  facet normal 0 -0.857493 -0.514496
    outer loop
      vertex 45.5 -62 5
      vertex 49.5 -59 0
      vertex 53.498 -62 5
    endloop
  endfacet
  facet normal 1 -0 0
    outer loop
      vertex -42.5 -69 8
      vertex -42.5 -68 3
      vertex -42.5 -68 8
    endloop
  endfacet
  facet normal 1 0 0
    outer loop
      vertex -42.5 -68 3
      vertex -42.5 -69 8
      vertex -42.5 -69 3
    endloop
  endfacet
  facet normal 0 1 0
    outer loop
      vertex 43.5 -68 7.998
      vertex 42.5 -68 3
      vertex 42.5 -68 8
    endloop
  endfacet
  facet normal 0 1 0
    outer loop
      vertex 42.5 -68 3
      vertex 43.5 -68 2
      vertex -42.5 -68 3
    endloop
  endfacet
  facet normal 0 1 -0
    outer loop
      vertex 43.5 -68 2
      vertex 42.5 -68 3
      vertex 43.5 -68 7.998
    endloop
  endfacet
  facet normal 0 1 -0
    outer loop
      vertex -42.5 -68 3
      vertex -43.5 -68 7.998
      vertex -42.5 -68 8
    endloop
  endfacet
  facet normal 0 1 0
    outer loop
      vertex -42.5 -68 3
      vertex -43.5 -68 2
      vertex -43.5 -68 7.998
    endloop
  endfacet
  facet normal 0 1 0
    outer loop
      vertex -43.5 -68 2
      vertex -42.5 -68 3
      vertex 43.5 -68 2
    endloop
  endfacet
  facet normal 0 -1 0
    outer loop
      vertex -45.5 -69 8
      vertex -42.5 -69 3
      vertex -42.5 -69 8
    endloop
  endfacet
  facet normal 0 -1 -0
    outer loop
      vertex -42.5 -69 3
      vertex -45.5 -69 0
      vertex 42.5 -69 3
    endloop
  endfacet
  facet normal 0 -1 0
    outer loop
      vertex -45.5 -69 0
      vertex -42.5 -69 3
      vertex -45.5 -69 8
    endloop
  endfacet
  facet normal 0 -1 0
    outer loop
      vertex 42.5 -69 3
      vertex 45.5 -69 8
      vertex 42.5 -69 8
    endloop
  endfacet
  facet normal 0 -1 0
    outer loop
      vertex 42.5 -69 3
      vertex 45.5 -69 0
      vertex 45.5 -69 8
    endloop
  endfacet
  facet normal 0 -1 0
    outer loop
      vertex 45.5 -69 0
      vertex 42.5 -69 3
      vertex -45.5 -69 0
    endloop
  endfacet
  facet normal -0 0 1
    outer loop
      vertex -42.5 -68 3
      vertex 42.5 -69 3
      vertex 42.5 -68 3
    endloop
  endfacet
  facet normal 0 0 1
    outer loop
      vertex 42.5 -69 3
      vertex -42.5 -68 3
      vertex -42.5 -69 3
    endloop
  endfacet
  facet normal 0 0.780869 -0.624695
    outer loop
      vertex -2.002 -2 2.5
      vertex -0.0019989 -4 0
      vertex -24.75 -4 0
    endloop
  endfacet
  facet normal 0 0.780869 -0.624695
    outer loop
      vertex 53.498 0 5
      vertex 24.75 -2 2.5
      vertex -0.0019989 0 5
    endloop
  endfacet
  facet normal 0 0.780869 -0.624695
    outer loop
      vertex 24.75 -2 2.5
      vertex 53.498 0 5
      vertex 49.5 -4 0
    endloop
  endfacet
  facet normal 0 0.780869 -0.624695
    outer loop
      vertex -0.0019989 0 5
      vertex -2.002 -2 2.5
      vertex -26.75 0 5
    endloop
  endfacet
  facet normal 0.00010106 0.78042 -0.625256
    outer loop
      vertex -2.002 -2 2.5
      vertex -24.75 -4 0
      vertex -25.75 -3 1.248
    endloop
  endfacet
  facet normal 1 0 0
    outer loop
      vertex 45.5 -62 8
      vertex 45.5 -69 8
      vertex 45.5 -62 5
    endloop
  endfacet
  facet normal 1 0 0
    outer loop
      vertex 45.5 -69 0
      vertex 45.5 -62 5
      vertex 45.5 -69 8
    endloop
  endfacet
  facet normal 1 0 0
    outer loop
      vertex 45.5 -62 5
      vertex 45.5 -69 0
      vertex 45.5 -59 0
    endloop
  endfacet
  facet normal -1 0 0
    outer loop
      vertex 42.5 -69 3
      vertex 42.5 -68 8
      vertex 42.5 -68 3
    endloop
  endfacet
  facet normal -1 -0 0
    outer loop
      vertex 42.5 -68 8
      vertex 42.5 -69 3
      vertex 42.5 -69 8
    endloop
  endfacet
  facet normal 0 -1 0
    outer loop
      vertex -53.5 -62 5
      vertex -45.5 -62 8
      vertex -53.5 -62 8
    endloop
  endfacet
  facet normal 0 -1 -0
    outer loop
      vertex -45.5 -62 8
      vertex -53.5 -62 5
      vertex -45.5 -62 5
    endloop
  endfacet
  facet normal 0 -1 0
    outer loop
      vertex 45.5 -62 5
      vertex 53.498 -62 8
      vertex 45.5 -62 8
    endloop
  endfacet
  facet normal 0 -1 -0
    outer loop
      vertex 53.498 -62 8
      vertex 45.5 -62 5
      vertex 53.498 -62 5
    endloop
  endfacet
  facet normal -0.780869 -0 -0.624695
    outer loop
      vertex -53.5 0 5
      vertex -49.5 -4 0
      vertex -53.5 -13.502 5
    endloop
  endfacet
  facet normal -0.781434 -0.000291604 -0.623987
    outer loop
      vertex -52.816 -24.482 4.142
      vertex -49.5 -47.392 0
      vertex -53.5 -27.5 5
    endloop
  endfacet
  facet normal -0.780869 0 -0.624695
    outer loop
      vertex -53.5 -62 5
      vertex -49.5 -47.392 0
      vertex -49.5 -59 0
    endloop
  endfacet
  facet normal -0.780869 0 -0.624695
    outer loop
      vertex -49.5 -47.392 0
      vertex -53.5 -62 5
      vertex -53.5 -27.5 5
    endloop
  endfacet
  facet normal -0.781391 -0.000275437 -0.624042
    outer loop
      vertex -52.572 -23.402 3.836
      vertex -49.5 -47.392 0
      vertex -52.816 -24.482 4.142
    endloop
  endfacet
  facet normal -0.780742 -0 -0.624853
    outer loop
      vertex -49.5 -4 0
      vertex -49.5 -47.392 0
      vertex -52.394 -22.286 3.616
    endloop
  endfacet
  facet normal -0.778816 0.000567728 -0.627253
    outer loop
      vertex -52.394 -22.286 3.616
      vertex -49.5 -47.392 0
      vertex -52.572 -23.402 3.836
    endloop
  endfacet
  facet normal -0.777556 -0.00254103 -0.628808
    outer loop
      vertex -53.128 -25.52 4.532
      vertex -52.816 -24.482 4.142
      vertex -53.5 -27.5 5
    endloop
  endfacet
  facet normal -0.782823 -0 -0.622244
    outer loop
      vertex -53.5 -26.5 5
      vertex -53.128 -25.52 4.532
      vertex -53.5 -27.5 5
    endloop
  endfacet
  facet normal -0.775519 -0.00210554 -0.63132
    outer loop
      vertex -52.288 -21.15 3.482
      vertex -49.5 -4 0
      vertex -52.394 -22.286 3.616
    endloop
  endfacet
  facet normal -0.782157 0.000646424 -0.623081
    outer loop
      vertex -52.252 -20.002 3.438
      vertex -49.5 -4 0
      vertex -52.288 -21.15 3.482
    endloop
  endfacet
  facet normal -0.77967 -0.00044927 -0.62619
    outer loop
      vertex -49.5 -4 0
      vertex -52.252 -20.002 3.438
      vertex -52.288 -18.854 3.482
    endloop
  endfacet
  facet normal -0.781833 0.000590319 -0.623487
    outer loop
      vertex -49.5 -4 0
      vertex -52.288 -18.854 3.482
      vertex -52.394 -17.714 3.616
    endloop
  endfacet
  facet normal -0.779313 -0.000771554 -0.626635
    outer loop
      vertex -49.5 -4 0
      vertex -52.394 -17.714 3.616
      vertex -52.572 -16.602 3.836
    endloop
  endfacet
  facet normal -0.781184 0.000394945 -0.624301
    outer loop
      vertex -49.5 -4 0
      vertex -52.572 -16.602 3.836
      vertex -52.816 -15.52 4.142
    endloop
  endfacet
  facet normal -0.780761 8.31967e-05 -0.62483
    outer loop
      vertex -49.5 -4 0
      vertex -52.816 -15.52 4.142
      vertex -53.128 -14.484 4.532
    endloop
  endfacet
  facet normal -1 0 0
    outer loop
      vertex -53.5 -27.5 5
      vertex -53.5 -62 5
      vertex -53.5 -27.5 7
    endloop
  endfacet
  facet normal -1 0 0
    outer loop
      vertex -53.5 0 5
      vertex -53.5 -7.4 8
      vertex -53.5 0 8
    endloop
  endfacet
  facet normal -1 0 0
    outer loop
      vertex -53.5 -13.502 5
      vertex -53.5 -7.4 8
      vertex -53.5 0 5
    endloop
  endfacet
  facet normal -1 0 0
    outer loop
      vertex -53.5 -7.4 8
      vertex -53.5 -13.502 5
      vertex -53.5 -13.502 7
    endloop
  endfacet
  facet normal -1 -0 0
    outer loop
      vertex -53.5 -7.4 8
      vertex -53.5 -13.502 7
      vertex -53.5 -13.4 8
    endloop
  endfacet
  facet normal -1 0 0
    outer loop
      vertex -53.5 -27.5 7
      vertex -53.5 -13.4 8
      vertex -53.5 -13.502 7
    endloop
  endfacet
  facet normal -1 0 0
    outer loop
      vertex -53.5 -62 8
      vertex -53.5 -27.5 7
      vertex -53.5 -62 5
    endloop
  endfacet
  facet normal -1 0 0
    outer loop
      vertex -53.5 -27.5 7
      vertex -53.5 -62 8
      vertex -53.5 -13.4 8
    endloop
  endfacet
  facet normal -0.781797 0.00100263 -0.623532
    outer loop
      vertex -49.5 -4 0
      vertex -53.128 -14.484 4.532
      vertex -53.5 -13.502 5
    endloop
  endfacet
  facet normal 1 -0 0
    outer loop
      vertex 53.498 -31 8
      vertex 53.498 0 5
      vertex 53.498 0 8
    endloop
  endfacet
  facet normal 1 0 0
    outer loop
      vertex 53.498 -31 8
      vertex 53.498 -31 5
      vertex 53.498 0 5
    endloop
  endfacet
  facet normal 1 -0 0
    outer loop
      vertex 53.498 -62 8
      vertex 53.498 -31 5
      vertex 53.498 -31 8
    endloop
  endfacet
  facet normal 1 0 0
    outer loop
      vertex 53.498 -31 5
      vertex 53.498 -62 8
      vertex 53.498 -62 5
    endloop
  endfacet
  facet normal 0.78096 3.71483e-05 -0.624581
    outer loop
      vertex 49.5 -25.376 0.00199986
      vertex 51.498 -29.5 2.5
      vertex 49.5 -59 0
    endloop
  endfacet
  facet normal 0.78093 0 -0.624619
    outer loop
      vertex 49.5 -21.196 0.00199986
      vertex 51.498 -29.5 2.5
      vertex 49.5 -25.376 0.00199986
    endloop
  endfacet
  facet normal 0.780899 0 -0.624657
    outer loop
      vertex 49.5 -20.916 0.00199986
      vertex 53.498 0 5
      vertex 49.5 -21.196 0.00199986
    endloop
  endfacet
  facet normal 1 0 0
    outer loop
      vertex 49.5 -18.69 0.00199986
      vertex 49.5 -18.808 0.00399971
      vertex 49.5 -20.916 0.00199986
    endloop
  endfacet
  facet normal -1 0 -0
    outer loop
      vertex 49.5 -38.846 0.00199986
      vertex 49.5 -25.376 0.00199986
      vertex 49.5 -59 0
    endloop
  endfacet
  facet normal 0.779685 0.000594046 -0.626172
    outer loop
      vertex 49.5 -18.808 0.00399971
      vertex 53.498 0 5
      vertex 49.5 -20.916 0.00199986
    endloop
  endfacet
  facet normal 4.39571e-05 9.48668e-05 -1
    outer loop
      vertex 47.5 -38.846 0.00199986
      vertex 45.5 -59 0
      vertex 25.75 -28.768 0.00199986
    endloop
  endfacet
  facet normal 0 9.92289e-05 -1
    outer loop
      vertex 49.5 -59 0
      vertex 47.5 -38.846 0.00199986
      vertex 49.5 -38.846 0.00199986
    endloop
  endfacet
  facet normal 0 9.92289e-05 -1
    outer loop
      vertex 47.5 -38.846 0.00199986
      vertex 49.5 -59 0
      vertex 45.5 -59 0
    endloop
  endfacet
  facet normal 0 0.000198438 -1
    outer loop
      vertex -21.752 -48.924 0
      vertex -0.0019989 -38.846 0.00199986
      vertex 1.998 -38.846 0.00199986
    endloop
  endfacet
  facet normal 0 0.000198438 -1
    outer loop
      vertex -0.0019989 -38.846 0.00199986
      vertex -21.752 -48.924 0
      vertex -24.75 -48.924 0
    endloop
  endfacet
  facet normal -4.39446e-05 0.00010359 -1
    outer loop
      vertex 1.998 -38.846 0.00199986
      vertex 23.75 -48.924 0
      vertex -0.0019989 -59 0
    endloop
  endfacet
  facet normal 4.39488e-05 9.48676e-05 -1
    outer loop
      vertex 1.998 -38.846 0.00199986
      vertex -0.0019989 -59 0
      vertex -21.752 -48.924 0
    endloop
  endfacet
  facet normal 0.781054 -8.50128e-05 -0.624463
    outer loop
      vertex 49.5 -4 0
      vertex 53.498 0 5
      vertex 49.5 -18.69 0.00199986
    endloop
  endfacet
  facet normal 4.04155e-05 -0.000272238 -1
    outer loop
      vertex -0.0019989 -4 0
      vertex -0.0019989 -11.346 0.00199986
      vertex -24.75 -7.674 0
    endloop
  endfacet
  facet normal -0 0 -1
    outer loop
      vertex 49.5 -4 0
      vertex 24.75 -7.674 0
      vertex -0.0019989 -4 0
    endloop
  endfacet
  facet normal -4.04089e-05 -0.000272238 -1
    outer loop
      vertex -0.0019989 -4 0
      vertex 24.75 -7.674 0
      vertex -0.0019989 -11.346 0.00199986
    endloop
  endfacet
  facet normal 0 0 -1
    outer loop
      vertex 45.5 -69 0
      vertex 23.75 -48.924 0
      vertex 45.5 -59 0
    endloop
  endfacet
  facet normal 0 0 -1
    outer loop
      vertex 45.5 -69 0
      vertex -0.0019989 -59 0
      vertex 23.75 -48.924 0
    endloop
  endfacet
  facet normal 0 0 -1
    outer loop
      vertex -45.5 -69 0
      vertex -21.752 -48.924 0
      vertex -0.0019989 -59 0
    endloop
  endfacet
  facet normal 0 0 -1
    outer loop
      vertex -49.5 -47.392 0
      vertex -24.75 -7.674 0
      vertex -24.75 -48.924 0
    endloop
  endfacet
  facet normal 0 0 -1
    outer loop
      vertex -45.5 -69 0
      vertex -0.0019989 -59 0
      vertex 45.5 -69 0
    endloop
  endfacet
  facet normal -0 0 -1
    outer loop
      vertex -21.752 -48.924 0
      vertex -45.5 -69 0
      vertex -24.75 -48.924 0
    endloop
  endfacet
  facet normal 0 0 -1
    outer loop
      vertex -45.5 -59 0
      vertex -24.75 -48.924 0
      vertex -45.5 -69 0
    endloop
  endfacet
  facet normal 0 0 -1
    outer loop
      vertex -49.5 -47.392 0
      vertex -24.75 -48.924 0
      vertex -45.5 -59 0
    endloop
  endfacet
  facet normal 0 0 -1
    outer loop
      vertex -49.5 -47.392 0
      vertex -45.5 -59 0
      vertex -49.5 -59 0
    endloop
  endfacet
  facet normal 0 0 -1
    outer loop
      vertex -49.5 -4 0
      vertex -24.75 -7.674 0
      vertex -49.5 -47.392 0
    endloop
  endfacet
  facet normal 0 0 -1
    outer loop
      vertex -24.75 -7.674 0
      vertex -49.5 -4 0
      vertex -24.75 -4 0
    endloop
  endfacet
  facet normal -0 0 -1
    outer loop
      vertex -0.0019989 -4 0
      vertex -24.75 -7.674 0
      vertex -24.75 -4 0
    endloop
  endfacet
  facet normal 0.799096 -0.0101877 -0.601117
    outer loop
      vertex 49.5 -18.69 0.00199986
      vertex 53.498 0 5
      vertex 49.5 -18.808 0.00399971
    endloop
  endfacet
  facet normal 0 0.002 0.999998
    outer loop
      vertex 43.5 -68 7.998
      vertex 45.5 -69 8
      vertex 44.5 -67 7.996
    endloop
  endfacet
  facet normal 0 0.002 0.999998
    outer loop
      vertex 45.5 -69 8
      vertex 43.5 -68 7.998
      vertex 42.5 -69 8
    endloop
  endfacet
  facet normal 0.002 0 0.999998
    outer loop
      vertex 44.5 -67 7.996
      vertex 43.5 -67 7.998
      vertex 43.5 -68 7.998
    endloop
  endfacet
  facet normal 0.002 0 0.999998
    outer loop
      vertex 43.5 -68 7.998
      vertex 42.5 -68 8
      vertex 42.5 -69 8
    endloop
  endfacet
  facet normal 1 0 0
    outer loop
      vertex -43.5 -67 7.998
      vertex -43.5 -60 11.998
      vertex -43.5 -67 11.998
    endloop
  endfacet
  facet normal 1 -0 0
    outer loop
      vertex -43.5 -60 7
      vertex -43.5 -57 2
      vertex -43.5 -57 7
    endloop
  endfacet
  facet normal 1 0 0
    outer loop
      vertex -43.5 -60 11.998
      vertex -43.5 -67 7.998
      vertex -43.5 -60 7
    endloop
  endfacet
  facet normal 1 0 0
    outer loop
      vertex -43.5 -68 2
      vertex -43.5 -60 7
      vertex -43.5 -67 7.998
    endloop
  endfacet
  facet normal 1 0 0
    outer loop
      vertex -43.5 -68 2
      vertex -43.5 -67 7.998
      vertex -43.5 -68 7.998
    endloop
  endfacet
  facet normal 1 0 0
    outer loop
      vertex -43.5 -60 7
      vertex -43.5 -68 2
      vertex -43.5 -57 2
    endloop
  endfacet
  facet normal -1 0 0
    outer loop
      vertex 43.5 -57 2
      vertex 43.5 -60 6.996
      vertex 43.5 -57 6.99
    endloop
  endfacet
  facet normal -1 0 0
    outer loop
      vertex 43.5 -60 6.996
      vertex 43.5 -67 7.998
      vertex 43.5 -60 11.996
    endloop
  endfacet
  facet normal -1 0 0
    outer loop
      vertex 43.5 -68 2
      vertex 43.5 -60 6.996
      vertex 43.5 -57 2
    endloop
  endfacet
  facet normal -1 -0 0
    outer loop
      vertex 43.5 -60 6.996
      vertex 43.5 -68 2
      vertex 43.5 -67 7.998
    endloop
  endfacet
  facet normal -1 -0 0
    outer loop
      vertex 43.5 -67 7.998
      vertex 43.5 -68 2
      vertex 43.5 -68 7.998
    endloop
  endfacet
  facet normal -1 -0 0
    outer loop
      vertex 43.5 -60 11.996
      vertex 43.5 -67 7.998
      vertex 43.5 -67 11.998
    endloop
  endfacet
  facet normal 0 0.002 0.999998
    outer loop
      vertex 44.5 -57 6.99
      vertex 43.5 -57 6.99
      vertex 43.5 -60 6.996
    endloop
  endfacet
  facet normal -0.000101256 0 1
    outer loop
      vertex 39.5 -57 6.99
      vertex 39.5 -56 6.99
      vertex 19.748 -56.752 6.988
    endloop
  endfacet
  facet normal 5.2653e-05 0.019996 0.9998
    outer loop
      vertex -19.752 -56.752 6.992
      vertex -19.752 -56.252 6.982
      vertex -39.5 -57 6.998
    endloop
  endfacet
  facet normal 0.000128397 0.0179971 0.999838
    outer loop
      vertex -19.752 -56.252 6.982
      vertex -39.5 -56 6.98
      vertex -39.5 -57 6.998
    endloop
  endfacet
  facet normal 1 0 0
    outer loop
      vertex -39.5 -57 6.998
      vertex -39.5 -56 7.998
      vertex -39.5 -57 7.998
    endloop
  endfacet
  facet normal 1 0 0
    outer loop
      vertex -39.5 -56 7.998
      vertex -39.5 -57 6.998
      vertex -39.5 -56 6.98
    endloop
  endfacet
  facet normal 0 0 -1
    outer loop
      vertex -53.5 -27.5 7
      vertex -51.5 -13.502 7
      vertex -51.5 -27.5 7
    endloop
  endfacet
  facet normal -0 0 -1
    outer loop
      vertex -51.5 -13.502 7
      vertex -53.5 -27.5 7
      vertex -53.5 -13.502 7
    endloop
  endfacet
  facet normal -0 0 1
    outer loop
      vertex 41.4 0 7
      vertex 47.398 -1 7
      vertex 47.398 0 7
    endloop
  endfacet
  facet normal 0 0 1
    outer loop
      vertex 47.398 -1 7
      vertex 41.4 0 7
      vertex 41.4 -1 7
    endloop
  endfacet
  facet normal -0 0 1
    outer loop
      vertex -47.4 0 7
      vertex -41.4 -1 7
      vertex -41.4 0 7
    endloop
  endfacet
  facet normal 0 0 1
    outer loop
      vertex -41.4 -1 7
      vertex -47.4 0 7
      vertex -47.4 -1 7
    endloop
  endfacet
  facet normal -0 0 1
    outer loop
      vertex -44.5 -57 7
      vertex -43.5 -60 7
      vertex -43.5 -57 7
    endloop
  endfacet
  facet normal 0 0 1
    outer loop
      vertex -43.5 -60 7
      vertex -44.5 -57 7
      vertex -44.5 -60 7
    endloop
  endfacet
  facet normal -1 0 0
    outer loop
      vertex -41.4 -1 7
      vertex -41.4 0 8
      vertex -41.4 0 7
    endloop
  endfacet
  facet normal -1 0 0
    outer loop
      vertex -41.4 0 8
      vertex -41.4 -1 7
      vertex -41.4 -1 7.998
    endloop
  endfacet
  facet normal 0 -1 0
    outer loop
      vertex -51.502 -61 8
      vertex -44.5 -61 11.998
      vertex -51.5 -61 11.998
    endloop
  endfacet
  facet normal 0 -1 -0
    outer loop
      vertex -44.5 -61 11.998
      vertex -51.502 -61 8
      vertex -44.5 -61 7.998
    endloop
  endfacet
  facet normal -0.707107 -0.707107 0.00035373
    outer loop
      vertex -51.502 -61 8
      vertex -51.5 -61 11.998
      vertex -52.502 -60 8
    endloop
  endfacet
  facet normal -0 0 1
    outer loop
      vertex 47.55 -32.05 11.998
      vertex 51.5 -33.026 11.998
      vertex 51.5 -32.05 11.998
    endloop
  endfacet
  facet normal 0 0 1
    outer loop
      vertex 51.5 -33.026 11.998
      vertex 47.55 -32.05 11.998
      vertex 47.55 -33.026 11.998
    endloop
  endfacet
  facet normal 0 0 1
    outer loop
      vertex 51.5 -1 11.998
      vertex 33.212 -2 11.998
      vertex 51.5 -2 11.998
    endloop
  endfacet
  facet normal 0 0 1
    outer loop
      vertex 33.212 -2 11.998
      vertex 32.236 -2 11.998
      vertex 33.212 -5 11.998
    endloop
  endfacet
  facet normal 0 0 1
    outer loop
      vertex 51.5 -1 11.998
      vertex 32.236 -2 11.998
      vertex 33.212 -2 11.998
    endloop
  endfacet
  facet normal 0 0 1
    outer loop
      vertex 51.5 -1 11.998
      vertex -30.876 -2 11.998
      vertex 32.236 -2 11.998
    endloop
  endfacet
  facet normal 0 0 1
    outer loop
      vertex -30.876 -2 11.998
      vertex -31.75 -2 11.998
      vertex -30.876 -5 11.998
    endloop
  endfacet
  facet normal -0 0 1
    outer loop
      vertex -51.5 -1 11.998
      vertex -30.876 -2 11.998
      vertex 51.5 -1 11.998
    endloop
  endfacet
  facet normal 0 0 1
    outer loop
      vertex -30.876 -2 11.998
      vertex -51.5 -1 11.998
      vertex -31.75 -2 11.998
    endloop
  endfacet
  facet normal 0 0 1
    outer loop
      vertex -51.5 -1 11.998
      vertex -51.5 -2 11.998
      vertex -31.75 -2 11.998
    endloop
  endfacet
  facet normal 0 0 1
    outer loop
      vertex -52.5 -2 11.998
      vertex -51.5 -2 11.998
      vertex -51.5 -1 11.998
    endloop
  endfacet
  facet normal 0 0 1
    outer loop
      vertex -51.5 -2 11.998
      vertex -52.5 -2 11.998
      vertex -51.5 -6.89802 11.998
    endloop
  endfacet
  facet normal 0 0 1
    outer loop
      vertex -51.5 -6.89802 11.998
      vertex -52.5 -2 11.998
      vertex -52.5 -6.89802 11.998
    endloop
  endfacet
  facet normal 0 0 1
    outer loop
      vertex 51.5 -2 11.998
      vertex 52.5 -2 11.998
      vertex 51.5 -1 11.998
    endloop
  endfacet
  facet normal 0 0 1
    outer loop
      vertex 51.5 -32.05 11.998
      vertex 52.5 -2 11.998
      vertex 51.5 -2 11.998
    endloop
  endfacet
  facet normal 0 0 1
    outer loop
      vertex 52.5 -2 11.998
      vertex 51.5 -32.05 11.998
      vertex 52.5 -60 11.998
    endloop
  endfacet
  facet normal -0 0 1
    outer loop
      vertex 51.5 -33.026 11.998
      vertex 52.5 -60 11.998
      vertex 51.5 -32.05 11.998
    endloop
  endfacet
  facet normal 0 0 1
    outer loop
      vertex 51.5 -60 11.998
      vertex 52.5 -60 11.998
      vertex 51.5 -33.026 11.998
    endloop
  endfacet
  facet normal 0 0 1
    outer loop
      vertex 52.5 -60 11.998
      vertex 51.5 -60 11.998
      vertex 51.5 -61 11.998
    endloop
  endfacet
  facet normal 0 0 1
    outer loop
      vertex 33.212 -5 11.998
      vertex 32.236 -2 11.998
      vertex 32.236 -5 11.998
    endloop
  endfacet
  facet normal 0 0 1
    outer loop
      vertex -30.876 -5 11.998
      vertex -31.75 -2 11.998
      vertex -31.75 -5 11.998
    endloop
  endfacet
  facet normal -0 0 1
    outer loop
      vertex -52 -31.5 11.998
      vertex -51.5 -32.05 11.998
      vertex -51.5 -13.902 11.998
    endloop
  endfacet
  facet normal 0 0 1
    outer loop
      vertex -51.5 -32.05 11.998
      vertex -52 -31.5 11.998
      vertex -51.5 -33.026 11.998
    endloop
  endfacet
  facet normal 0 0 1
    outer loop
      vertex -51.5 -33.026 11.998
      vertex -52 -31.5 11.998
      vertex -51.5 -60 11.998
    endloop
  endfacet
  facet normal 0 0 1
    outer loop
      vertex -51.5 -60 11.998
      vertex -52 -31.5 11.998
      vertex -51.5 -61 11.998
    endloop
  endfacet
  facet normal 0 0 1
    outer loop
      vertex -52.5 -31 11.998
      vertex -51.5 -13.902 11.998
      vertex -52.5 -13.902 11.998
    endloop
  endfacet
  facet normal 0 0 1
    outer loop
      vertex -51.5 -13.902 11.998
      vertex -52.5 -31 11.998
      vertex -52 -31.5 11.998
    endloop
  endfacet
  facet normal -0 0 1
    outer loop
      vertex -51.5 -32.05 11.998
      vertex -47.55 -33.026 11.998
      vertex -47.55 -32.05 11.998
    endloop
  endfacet
  facet normal 0 0 1
    outer loop
      vertex -47.55 -33.026 11.998
      vertex -51.5 -32.05 11.998
      vertex -51.5 -33.026 11.998
    endloop
  endfacet
  facet normal 0 0 1
    outer loop
      vertex -43.5 -60 11.998
      vertex -44.5 -61 11.998
      vertex -43.5 -67 11.998
    endloop
  endfacet
  facet normal -0 0 1
    outer loop
      vertex -51.5 -60 11.998
      vertex -44.5 -61 11.998
      vertex -43.5 -60 11.998
    endloop
  endfacet
  facet normal 0 0 1
    outer loop
      vertex -44.5 -61 11.998
      vertex -51.5 -60 11.998
      vertex -51.5 -61 11.998
    endloop
  endfacet
  facet normal 0 0 1
    outer loop
      vertex -43.5 -67 11.998
      vertex -44.5 -61 11.998
      vertex -44.5 -67 11.998
    endloop
  endfacet
  facet normal 0 -1 0
    outer loop
      vertex 43.5 -67 7.998
      vertex 44.5 -67 11.996
      vertex 43.5 -67 11.998
    endloop
  endfacet
  facet normal 0 -1 -0
    outer loop
      vertex 44.5 -67 11.996
      vertex 43.5 -67 7.998
      vertex 44.5 -67 7.996
    endloop
  endfacet
  facet normal 0 -1 0
    outer loop
      vertex -44.5 -67 7.998
      vertex -43.5 -67 11.998
      vertex -44.5 -67 11.998
    endloop
  endfacet
  facet normal 0 -1 -0
    outer loop
      vertex -43.5 -67 11.998
      vertex -44.5 -67 7.998
      vertex -43.5 -67 7.998
    endloop
  endfacet
  facet normal 0 -0.0240411 0.999711
    outer loop
      vertex 53.498 -62 8
      vertex 51.5 -61.002 8.024
      vertex 45.5 -62 8
    endloop
  endfacet
  facet normal -0.00025 -0.00025 1
    outer loop
      vertex 44.5 -61 11.996
      vertex 51.5 -60 11.998
      vertex 43.5 -60 11.996
    endloop
  endfacet
  facet normal 0.000285714 0.000285714 1
    outer loop
      vertex 44.5 -61 11.996
      vertex 43.5 -60 11.996
      vertex 43.5 -67 11.998
    endloop
  endfacet
  facet normal 0.002 -0 0.999998
    outer loop
      vertex 44.5 -67 11.996
      vertex 44.5 -61 11.996
      vertex 43.5 -67 11.998
    endloop
  endfacet
  facet normal -0.00399997 0 0.999992
    outer loop
      vertex 44.5 -67 7.996
      vertex 45.5 -62 8
      vertex 44.5 -61 7.996
    endloop
  endfacet
  facet normal -0.00399997 0 0.999992
    outer loop
      vertex 45.5 -62 8
      vertex 44.5 -67 7.996
      vertex 45.5 -69 8
    endloop
  endfacet
  facet normal -0.00399997 -2.53836e-16 0.999992
    outer loop
      vertex 45.5 -62 8
      vertex 51.5 -61.002 8.024
      vertex 44.5 -61 7.996
    endloop
  endfacet
  facet normal -0.000285714 -1 0
    outer loop
      vertex 51.5 -61.002 8.024
      vertex 44.5 -61 11.996
      vertex 44.5 -61 7.996
    endloop
  endfacet
  facet normal -0.000285714 0 1
    outer loop
      vertex 51.5 -61 11.998
      vertex 51.5 -60 11.998
      vertex 44.5 -61 11.996
    endloop
  endfacet
  facet normal -1.43792e-07 -1 0.000503271
    outer loop
      vertex 51.5 -61.002 8.024
      vertex 51.5 -61 11.998
      vertex 44.5 -61 11.996
    endloop
  endfacet
  facet normal 0.0203347 0.000129014 0.999793
    outer loop
      vertex 53.498 -31 8
      vertex 53 -30.002 8.01
      vertex 52.502 -60.002 8.024
    endloop
  endfacet
  facet normal 0.7064 -0.707813 0.000356222
    outer loop
      vertex 52.502 -60.002 8.024
      vertex 51.5 -61 11.998
      vertex 51.5 -61.002 8.024
    endloop
  endfacet
  facet normal 0.707107 -0.707107 0.000711733
    outer loop
      vertex 52.502 -60.002 8.024
      vertex 52.5 -60 11.998
      vertex 51.5 -61 11.998
    endloop
  endfacet
  facet normal -0.707107 0.707107 0
    outer loop
      vertex -52.5 -2 7.998
      vertex -51.5 -1 11.998
      vertex -51.5 -1 8
    endloop
  endfacet
  facet normal -0.707107 0.707107 0
    outer loop
      vertex -51.5 -1 11.998
      vertex -52.5 -2 7.998
      vertex -52.5 -2 11.998
    endloop
  endfacet
  facet normal -1 6.89655e-05 0
    outer loop
      vertex -52.5 -31 10
      vertex -52.5 -31 8
      vertex -52.502 -60 8
    endloop
  endfacet
  facet normal -0.707106 -0.707107 0.000353553
    outer loop
      vertex -51.5 -61 11.998
      vertex -52.5 -60 12
      vertex -52.502 -60 8
    endloop
  endfacet
  facet normal 6.89655e-05 6.89655e-05 1
    outer loop
      vertex -52 -31.5 11.998
      vertex -52.5 -31 11.998
      vertex -52.5 -60 12
    endloop
  endfacet
  facet normal 1 0 0
    outer loop
      vertex -51.5 -13.8 9.3168
      vertex -51.5 -14.2668 10.3905
      vertex -51.5 -13.8 8.39999
    endloop
  endfacet
  facet normal 1 0 0
    outer loop
      vertex -51.5 -6.50001 10.55
      vertex -51.5 -2 11.998
      vertex -51.5 -6.50001 11.6
    endloop
  endfacet
  facet normal 1 0 -0
    outer loop
      vertex -51.5 -6.50001 11.6
      vertex -51.5 -2 11.998
      vertex -51.5 -6.89802 11.998
    endloop
  endfacet
  facet normal 1 0 0
    outer loop
      vertex -51.5 -6.53318 10.3905
      vertex -51.5 -2 11.998
      vertex -51.5 -6.50001 10.55
    endloop
  endfacet
  facet normal 1 0 0
    outer loop
      vertex -51.5 -2 11.998
      vertex -51.5 -6.53318 10.3905
      vertex -51.5 -2 7
    endloop
  endfacet
  facet normal 1 0 0
    outer loop
      vertex -51.5 -7.00001 8.39999
      vertex -51.5 -6.53318 10.3905
      vertex -51.5 -7.00001 9.3168
    endloop
  endfacet
  facet normal 1 0 0
    outer loop
      vertex -51.5 -6.53318 10.3905
      vertex -51.5 -7.00001 8.39999
      vertex -51.5 -2 7
    endloop
  endfacet
  facet normal 1 -0 0
    outer loop
      vertex -51.5 -7.4 8
      vertex -51.5 -2 7
      vertex -51.5 -7.00001 8.39999
    endloop
  endfacet
  facet normal 1 0 0
    outer loop
      vertex -51.5 -13.502 7
      vertex -51.5 -7.4 8
      vertex -51.5 -13.4 8
    endloop
  endfacet
  facet normal 1 0 0
    outer loop
      vertex -51.5 -7.4 8
      vertex -51.5 -13.502 7
      vertex -51.5 -2 7
    endloop
  endfacet
  facet normal 1 0 0
    outer loop
      vertex -51.5 -13.8 8.39999
      vertex -51.5 -13.502 7
      vertex -51.5 -13.4 8
    endloop
  endfacet
  facet normal 1 0 0
    outer loop
      vertex -51.5 -27.5 7
      vertex -51.5 -13.8 8.39999
      vertex -51.5 -14.2668 10.3905
    endloop
  endfacet
  facet normal 1 0 0
    outer loop
      vertex -51.5 -13.8 8.39999
      vertex -51.5 -27.5 7
      vertex -51.5 -13.502 7
    endloop
  endfacet
  facet normal 1 0 0
    outer loop
      vertex -51.5 -27.5 7
      vertex -51.5 -14.2668 10.3905
      vertex -51.5 -14.3 10.55
    endloop
  endfacet
  facet normal 1 0 0
    outer loop
      vertex -51.5 -14.3 11.6
      vertex -51.5 -27.5 7
      vertex -51.5 -14.3 10.55
    endloop
  endfacet
  facet normal 1 -0 0
    outer loop
      vertex -51.5 -32.05 11.998
      vertex -51.5 -14.3 11.6
      vertex -51.5 -13.902 11.998
    endloop
  endfacet
  facet normal 1 0 0
    outer loop
      vertex -51.5 -14.3 11.6
      vertex -51.5 -32.05 11.998
      vertex -51.5 -27.5 7
    endloop
  endfacet
  facet normal 1 0 0
    outer loop
      vertex -51.5 -27.5 7
      vertex -51.5 -32.05 11.998
      vertex -51.5 -32.05 7
    endloop
  endfacet
  facet normal 1 -0 0
    outer loop
      vertex -51.5 -60 11.998
      vertex -51.5 -33.026 7
      vertex -51.5 -33.026 11.998
    endloop
  endfacet
  facet normal 1 0 0
    outer loop
      vertex -51.5 -33.026 7
      vertex -51.5 -60 11.998
      vertex -51.5 -60 7
    endloop
  endfacet
  facet normal -1 0 0.00040016
    outer loop
      vertex 51.498 -32.05 7
      vertex 51.5 -2 11.998
      vertex 51.498 -2 7
    endloop
  endfacet
  facet normal -1 0 0.00040016
    outer loop
      vertex 51.5 -2 11.998
      vertex 51.498 -32.05 7
      vertex 51.5 -32.05 11.998
    endloop
  endfacet
  facet normal -1 0 0.00040016
    outer loop
      vertex 51.498 -60 7
      vertex 51.5 -33.026 11.998
      vertex 51.498 -33.026 7
    endloop
  endfacet
  facet normal -1 0 0.00040016
    outer loop
      vertex 51.5 -33.026 11.998
      vertex 51.498 -60 7
      vertex 51.5 -60 11.998
    endloop
  endfacet
  facet normal -1 0 0
    outer loop
      vertex 47.398 -1 7
      vertex 47.398 0 8
      vertex 47.398 0 7
    endloop
  endfacet
  facet normal -1 0 0
    outer loop
      vertex 47.398 0 8
      vertex 47.398 -1 7
      vertex 47.398 -1 7.998
    endloop
  endfacet
  facet normal -0.000487567 0.000974158 0.999999
    outer loop
      vertex 51.5 -1 8
      vertex 53.498 0 8
      vertex 47.398 -1 7.998
    endloop
  endfacet
  facet normal -0.000690942 0.00034478 1
    outer loop
      vertex 53 -30.002 8.01
      vertex 53.498 0 8
      vertex 52.5 -2 8
    endloop
  endfacet
  facet normal 1 3.46724e-05 0.000503254
    outer loop
      vertex 52.502 -60.002 8.024
      vertex 52.5 -31 10
      vertex 52.5 -60 11.998
    endloop
  endfacet
  facet normal 1 0 0
    outer loop
      vertex 52.5 -2 11.998
      vertex 52.5 -31 10
      vertex 52.5 -2 8
    endloop
  endfacet
  facet normal 1 0 -0
    outer loop
      vertex 52.5 -31 10
      vertex 52.5 -2 11.998
      vertex 52.5 -60 11.998
    endloop
  endfacet
  facet normal 1 0 0
    outer loop
      vertex 52.5 -2 8
      vertex 52.5 -31 10
      vertex 52.5 -31.002 8.01
    endloop
  endfacet
  facet normal 0.707107 0.707107 0
    outer loop
      vertex 52.5 -2 11.998
      vertex 51.5 -1 8
      vertex 51.5 -1 11.998
    endloop
  endfacet
  facet normal 0.707107 0.707107 0
    outer loop
      vertex 51.5 -1 8
      vertex 52.5 -2 11.998
      vertex 52.5 -2 8
    endloop
  endfacet
  facet normal 0.00200399 -0.00400397 0.99999
    outer loop
      vertex 52.498 -1 7.998
      vertex 53.498 0 8
      vertex 51.5 -1 8
    endloop
  endfacet
  facet normal -0.00399198 0.001992 0.99999
    outer loop
      vertex 52.5 -2 8
      vertex 53.498 0 8
      vertex 52.498 -1 7.998
    endloop
  endfacet
  facet normal 0.002004 0.002004 0.999996
    outer loop
      vertex 52.5 -2 8
      vertex 52.498 -1 7.998
      vertex 51.5 -1 8
    endloop
  endfacet
  facet normal 0.928477 -0 0.371391
    outer loop
      vertex -51.5 -60 7
      vertex -49.5 -33.026 2
      vertex -51.5 -33.026 7
    endloop
  endfacet
  facet normal 0.928477 0 0.371391
    outer loop
      vertex -49.5 -33.026 2
      vertex -51.5 -60 7
      vertex -49.5 -60 2
    endloop
  endfacet
  facet normal 1 -0 0
    outer loop
      vertex -47.55 -33.026 11.998
      vertex -47.55 -32.05 2
      vertex -47.55 -32.05 11.998
    endloop
  endfacet
  facet normal 1 0 0
    outer loop
      vertex -47.55 -32.05 2
      vertex -47.55 -33.026 11.998
      vertex -47.55 -33.026 2
    endloop
  endfacet
  facet normal 0 1 0
    outer loop
      vertex -47.55 -32.05 11.998
      vertex -51.5 -32.05 7
      vertex -51.5 -32.05 11.998
    endloop
  endfacet
  facet normal 0 1 -0
    outer loop
      vertex -47.55 -32.05 2
      vertex -51.5 -32.05 7
      vertex -47.55 -32.05 11.998
    endloop
  endfacet
  facet normal 0 1 0
    outer loop
      vertex -51.5 -32.05 7
      vertex -47.55 -32.05 2
      vertex -49.5 -32.05 2
    endloop
  endfacet
  facet normal 0 1 -0
    outer loop
      vertex 51.498 -32.05 7
      vertex 47.55 -32.05 11.998
      vertex 51.5 -32.05 11.998
    endloop
  endfacet
  facet normal 0 1 0
    outer loop
      vertex 47.55 -32.05 2
      vertex 51.498 -32.05 7
      vertex 49.5 -32.05 2
    endloop
  endfacet
  facet normal 0 1 0
    outer loop
      vertex 51.498 -32.05 7
      vertex 47.55 -32.05 2
      vertex 47.55 -32.05 11.998
    endloop
  endfacet
  facet normal -1 0 0
    outer loop
      vertex -31.75 -5 2
      vertex -31.75 -2 7
      vertex -31.75 -4 2
    endloop
  endfacet
  facet normal -1 -0 0
    outer loop
      vertex -31.75 -2 7
      vertex -31.75 -5 2
      vertex -31.75 -5 11.998
    endloop
  endfacet
  facet normal -1 0 0
    outer loop
      vertex -31.75 -2 7
      vertex -31.75 -5 11.998
      vertex -31.75 -2 11.998
    endloop
  endfacet
  facet normal 0 -1 0
    outer loop
      vertex 32.236 -5 2
      vertex 33.212 -5 11.998
      vertex 32.236 -5 11.998
    endloop
  endfacet
  facet normal 0 -1 -0
    outer loop
      vertex 33.212 -5 11.998
      vertex 32.236 -5 2
      vertex 33.212 -5 2
    endloop
  endfacet
  facet normal 0 -1 0
    outer loop
      vertex -31.75 -5 2
      vertex -30.876 -5 11.998
      vertex -31.75 -5 11.998
    endloop
  endfacet
  facet normal 0 -1 -0
    outer loop
      vertex -30.876 -5 11.998
      vertex -31.75 -5 2
      vertex -30.876 -5 2
    endloop
  endfacet
  facet normal 0 -1 0
    outer loop
      vertex -51.5 -33.026 7
      vertex -47.55 -33.026 11.998
      vertex -51.5 -33.026 11.998
    endloop
  endfacet
  facet normal 0 -1 0
    outer loop
      vertex -47.55 -33.026 2
      vertex -51.5 -33.026 7
      vertex -49.5 -33.026 2
    endloop
  endfacet
  facet normal 0 -1 0
    outer loop
      vertex -51.5 -33.026 7
      vertex -47.55 -33.026 2
      vertex -47.55 -33.026 11.998
    endloop
  endfacet
  facet normal 0 -1 0
    outer loop
      vertex 47.55 -33.026 11.998
      vertex 51.498 -33.026 7
      vertex 51.5 -33.026 11.998
    endloop
  endfacet
  facet normal 0 -1 0
    outer loop
      vertex 47.55 -33.026 2
      vertex 51.498 -33.026 7
      vertex 47.55 -33.026 11.998
    endloop
  endfacet
  facet normal 0 -1 0
    outer loop
      vertex 51.498 -33.026 7
      vertex 47.55 -33.026 2
      vertex 49.5 -33.026 2
    endloop
  endfacet
  facet normal 1 -0 0
    outer loop
      vertex -30.876 -5 11.998
      vertex -30.876 -2 7
      vertex -30.876 -2 11.998
    endloop
  endfacet
  facet normal 1 0 0
    outer loop
      vertex -30.876 -5 2
      vertex -30.876 -2 7
      vertex -30.876 -5 11.998
    endloop
  endfacet
  facet normal 1 0 0
    outer loop
      vertex -30.876 -2 7
      vertex -30.876 -5 2
      vertex -30.876 -4 2
    endloop
  endfacet
  facet normal -1 0 0
    outer loop
      vertex 32.236 -5 2
      vertex 32.236 -2 7
      vertex 32.236 -4 2
    endloop
  endfacet
  facet normal -1 -0 0
    outer loop
      vertex 32.236 -2 7
      vertex 32.236 -5 2
      vertex 32.236 -5 11.998
    endloop
  endfacet
  facet normal -1 0 0
    outer loop
      vertex 32.236 -2 7
      vertex 32.236 -5 11.998
      vertex 32.236 -2 11.998
    endloop
  endfacet
  facet normal 1 -0 0
    outer loop
      vertex 33.212 -5 11.998
      vertex 33.212 -2 7
      vertex 33.212 -2 11.998
    endloop
  endfacet
  facet normal 1 0 0
    outer loop
      vertex 33.212 -5 2
      vertex 33.212 -2 7
      vertex 33.212 -5 11.998
    endloop
  endfacet
  facet normal 1 0 0
    outer loop
      vertex 33.212 -2 7
      vertex 33.212 -5 2
      vertex 33.212 -4 2
    endloop
  endfacet
  facet normal -1 0 0
    outer loop
      vertex 47.55 -33.026 2
      vertex 47.55 -32.05 11.998
      vertex 47.55 -32.05 2
    endloop
  endfacet
  facet normal -1 -0 0
    outer loop
      vertex 47.55 -32.05 11.998
      vertex 47.55 -33.026 2
      vertex 47.55 -33.026 11.998
    endloop
  endfacet
  facet normal -0.928605 0 0.37107
    outer loop
      vertex 51.498 -32.05 7
      vertex 49.5 -4 2
      vertex 49.5 -32.05 2
    endloop
  endfacet
  facet normal -0.928605 0 0.37107
    outer loop
      vertex 49.5 -4 2
      vertex 51.498 -32.05 7
      vertex 51.498 -2 7
    endloop
  endfacet
  facet normal -0.928605 0 0.37107
    outer loop
      vertex 49.5 -60 2
      vertex 51.498 -33.026 7
      vertex 49.5 -33.026 2
    endloop
  endfacet
  facet normal -0.928605 0 0.37107
    outer loop
      vertex 51.498 -33.026 7
      vertex 49.5 -60 2
      vertex 51.498 -60 7
    endloop
  endfacet
  facet normal 0 -0.928477 0.371391
    outer loop
      vertex -30.876 -4 2
      vertex 32.236 -2 7
      vertex -30.876 -2 7
    endloop
  endfacet
  facet normal 0 -0.928477 0.371391
    outer loop
      vertex 32.236 -2 7
      vertex -30.876 -4 2
      vertex 32.236 -4 2
    endloop
  endfacet
  facet normal 0 -0.928477 0.371391
    outer loop
      vertex -49.5 -4 2
      vertex -31.75 -2 7
      vertex -51.5 -2 7
    endloop
  endfacet
  facet normal 0 -0.928477 0.371391
    outer loop
      vertex -31.75 -2 7
      vertex -49.5 -4 2
      vertex -31.75 -4 2
    endloop
  endfacet
  facet normal 0 -0.928477 0.371391
    outer loop
      vertex 49.5 -4 2
      vertex 33.212 -2 7
      vertex 33.212 -4 2
    endloop
  endfacet
  facet normal 0 -0.928477 0.371391
    outer loop
      vertex 33.212 -2 7
      vertex 49.5 -4 2
      vertex 51.498 -2 7
    endloop
  endfacet
  facet normal 0 -1 0
    outer loop
      vertex 33.212 -2 7
      vertex 51.5 -2 11.998
      vertex 33.212 -2 11.998
    endloop
  endfacet
  facet normal 0 -1 0
    outer loop
      vertex 51.5 -2 11.998
      vertex 33.212 -2 7
      vertex 51.498 -2 7
    endloop
  endfacet
  facet normal 0 -1 0
    outer loop
      vertex -30.876 -2 7
      vertex 32.236 -2 11.998
      vertex -30.876 -2 11.998
    endloop
  endfacet
  facet normal 0 -1 -0
    outer loop
      vertex 32.236 -2 11.998
      vertex -30.876 -2 7
      vertex 32.236 -2 7
    endloop
  endfacet
  facet normal 0 -1 0
    outer loop
      vertex -51.5 -2 7
      vertex -31.75 -2 11.998
      vertex -51.5 -2 11.998
    endloop
  endfacet
  facet normal 0 -1 -0
    outer loop
      vertex -31.75 -2 11.998
      vertex -51.5 -2 7
      vertex -31.75 -2 7
    endloop
  endfacet
  facet normal 0 0 1
    outer loop
      vertex -50.7 -13.502 5
      vertex -52.252 -20.002 5
      vertex -50.7 -27.5 5
    endloop
  endfacet
  facet normal 0 0 1
    outer loop
      vertex -50.7 -13.502 5
      vertex -52.286 -18.892 5
      vertex -52.252 -20.002 5
    endloop
  endfacet
  facet normal 0 0 1
    outer loop
      vertex -50.7 -13.502 5
      vertex -52.392 -17.788 5
      vertex -52.286 -18.892 5
    endloop
  endfacet
  facet normal 0 0 1
    outer loop
      vertex -50.7 -13.502 5
      vertex -52.566 -16.692 5
      vertex -52.392 -17.788 5
    endloop
  endfacet
  facet normal 0 0 1
    outer loop
      vertex -50.7 -13.502 5
      vertex -52.81 -15.608 5
      vertex -52.566 -16.692 5
    endloop
  endfacet
  facet normal 0 0 1
    outer loop
      vertex -50.7 -13.502 5
      vertex -53.122 -14.544 5
      vertex -52.81 -15.608 5
    endloop
  endfacet
  facet normal 0 -0 1
    outer loop
      vertex -53.122 -14.544 5
      vertex -50.7 -13.502 5
      vertex -53.5 -13.502 5
    endloop
  endfacet
  facet normal -0 0 1
    outer loop
      vertex -52.286 -21.11 5
      vertex -50.7 -27.5 5
      vertex -52.252 -20.002 5
    endloop
  endfacet
  facet normal -0 0 1
    outer loop
      vertex -52.392 -22.216 5
      vertex -50.7 -27.5 5
      vertex -52.286 -21.11 5
    endloop
  endfacet
  facet normal -0 0 1
    outer loop
      vertex -52.566 -23.312 5
      vertex -50.7 -27.5 5
      vertex -52.392 -22.216 5
    endloop
  endfacet
  facet normal -0 0 1
    outer loop
      vertex -52.81 -24.392 5
      vertex -50.7 -27.5 5
      vertex -52.566 -23.312 5
    endloop
  endfacet
  facet normal -0 0 1
    outer loop
      vertex -53.122 -25.458 5
      vertex -50.7 -27.5 5
      vertex -52.81 -24.392 5
    endloop
  endfacet
  facet normal -0 0 1
    outer loop
      vertex -53.5 -26.5 5
      vertex -50.7 -27.5 5
      vertex -53.122 -25.458 5
    endloop
  endfacet
  facet normal 0 0 1
    outer loop
      vertex -50.7 -27.5 5
      vertex -53.5 -26.5 5
      vertex -53.5 -27.5 5
    endloop
  endfacet
  facet normal 0.928477 0 0.371391
    outer loop
      vertex -49.5 -32.05 2
      vertex -50.7 -13.502 5
      vertex -50.7 -27.5 5
    endloop
  endfacet
  facet normal 0.928477 0 0.371391
    outer loop
      vertex -50.7 -13.502 5
      vertex -49.5 -32.05 2
      vertex -49.5 -4 2
    endloop
  endfacet
  facet normal 0.928477 5.79976e-16 0.371391
    outer loop
      vertex -49.5 -32.05 2
      vertex -50.7 -27.5 5
      vertex -51.5 -32.05 7
    endloop
  endfacet
  facet normal 0.928477 0 0.371391
    outer loop
      vertex -50.7 -13.502 5
      vertex -51.5 -2 7
      vertex -51.5 -13.502 7
    endloop
  endfacet
  facet normal 0.928477 0 0.371391
    outer loop
      vertex -50.7 -27.5 5
      vertex -51.5 -27.5 7
      vertex -51.5 -32.05 7
    endloop
  endfacet
  facet normal 0.928477 -2.46579e-16 0.371391
    outer loop
      vertex -50.7 -13.502 5
      vertex -49.5 -4 2
      vertex -51.5 -2 7
    endloop
  endfacet
  facet normal 0 -1 0
    outer loop
      vertex -53.5 -13.502 5
      vertex -51.5 -13.502 7
      vertex -53.5 -13.502 7
    endloop
  endfacet
  facet normal 0 -1 -0
    outer loop
      vertex -51.5 -13.502 7
      vertex -53.5 -13.502 5
      vertex -50.7 -13.502 5
    endloop
  endfacet
  facet normal 0 1 0
    outer loop
      vertex -53.5 -27.5 5
      vertex -51.5 -27.5 7
      vertex -50.7 -27.5 5
    endloop
  endfacet
  facet normal 0 1 0
    outer loop
      vertex -51.5 -27.5 7
      vertex -53.5 -27.5 5
      vertex -53.5 -27.5 7
    endloop
  endfacet
  facet normal -0.959901 0.279249 -0.0246881
    outer loop
      vertex -53.122 -25.458 5
      vertex -52.816 -24.482 4.142
      vertex -53.128 -25.52 4.532
    endloop
  endfacet
  facet normal -0.939541 0.340832 -0.0331075
    outer loop
      vertex -53.122 -25.458 5
      vertex -53.128 -25.52 4.532
      vertex -53.5 -26.5 5
    endloop
  endfacet
  facet normal -0.976249 0.216072 -0.015838
    outer loop
      vertex -52.81 -24.392 5
      vertex -52.572 -23.402 3.836
      vertex -52.816 -24.482 4.142
    endloop
  endfacet
  facet normal -0.959489 0.280826 -0.0227476
    outer loop
      vertex -52.81 -24.392 5
      vertex -52.816 -24.482 4.142
      vertex -53.122 -25.458 5
    endloop
  endfacet
  facet normal -0.987707 0.156161 -0.00698302
    outer loop
      vertex -52.566 -23.312 5
      vertex -52.394 -22.286 3.616
      vertex -52.572 -23.402 3.836
    endloop
  endfacet
  facet normal -0.975346 0.220356 -0.0120103
    outer loop
      vertex -52.566 -23.312 5
      vertex -52.572 -23.402 3.836
      vertex -52.81 -24.392 5
    endloop
  endfacet
  facet normal -0.995705 0.0925268 -0.00324094
    outer loop
      vertex -52.392 -22.216 5
      vertex -52.288 -21.15 3.482
      vertex -52.394 -22.286 3.616
    endloop
  endfacet
  facet normal -0.98761 0.156792 -0.00650306
    outer loop
      vertex -52.392 -22.216 5
      vertex -52.394 -22.286 3.616
      vertex -52.566 -23.312 5
    endloop
  endfacet
  facet normal -0.999508 0.0313623 0.000490465
    outer loop
      vertex -52.286 -21.11 5
      vertex -52.252 -20.002 3.438
      vertex -52.288 -21.15 3.482
    endloop
  endfacet
  facet normal -0.995438 0.0954036 -0.00120242
    outer loop
      vertex -52.286 -21.11 5
      vertex -52.288 -21.15 3.482
      vertex -52.392 -22.216 5
    endloop
  endfacet
  facet normal -0.999509 -0.0313435 0
    outer loop
      vertex -52.252 -20.002 3.438
      vertex -52.252 -20.002 5
      vertex -52.288 -18.854 3.482
    endloop
  endfacet
  facet normal -0.99953 0.0306715 0
    outer loop
      vertex -52.252 -20.002 5
      vertex -52.252 -20.002 3.438
      vertex -52.286 -21.11 5
    endloop
  endfacet
  facet normal -0.959673 -0.280126 -0.02361
    outer loop
      vertex -52.816 -15.52 4.142
      vertex -53.122 -14.544 5
      vertex -53.128 -14.484 4.532
    endloop
  endfacet
  facet normal -0.939586 -0.340848 -0.0316525
    outer loop
      vertex -53.128 -14.484 4.532
      vertex -53.122 -14.544 5
      vertex -53.5 -13.502 5
    endloop
  endfacet
  facet normal -0.97631 -0.215836 -0.0153097
    outer loop
      vertex -52.572 -16.602 3.836
      vertex -52.81 -15.608 5
      vertex -52.816 -15.52 4.142
    endloop
  endfacet
  facet normal -0.95936 -0.281316 -0.0221441
    outer loop
      vertex -52.816 -15.52 4.142
      vertex -52.81 -15.608 5
      vertex -53.122 -14.544 5
    endloop
  endfacet
  facet normal -0.987621 -0.156701 -0.00702519
    outer loop
      vertex -52.394 -17.714 3.616
      vertex -52.566 -16.692 5
      vertex -52.572 -16.602 3.836
    endloop
  endfacet
  facet normal -0.975521 -0.219582 -0.0119495
    outer loop
      vertex -52.572 -16.602 3.836
      vertex -52.566 -16.692 5
      vertex -52.81 -15.608 5
    endloop
  endfacet
  facet normal -0.995737 -0.0921759 -0.00348955
    outer loop
      vertex -52.288 -18.854 3.482
      vertex -52.392 -17.788 5
      vertex -52.394 -17.714 3.616
    endloop
  endfacet
  facet normal -0.987607 -0.156792 -0.00695619
    outer loop
      vertex -52.394 -17.714 3.616
      vertex -52.392 -17.788 5
      vertex -52.566 -16.692 5
    endloop
  endfacet
  facet normal -0.999531 -0.0306163 0.00055049
    outer loop
      vertex -52.252 -20.002 5
      vertex -52.286 -18.892 5
      vertex -52.288 -18.854 3.482
    endloop
  endfacet
  facet normal -0.995422 -0.0955749 -0.00108103
    outer loop
      vertex -52.288 -18.854 3.482
      vertex -52.286 -18.892 5
      vertex -52.392 -17.788 5
    endloop
  endfacet
  facet normal 0.0239862 0.0239862 0.999424
    outer loop
      vertex 53.498 -62 8
      vertex 52.498 -61 8
      vertex 51.5 -61.002 8.024
    endloop
  endfacet
  facet normal -0.0239384 -0.0239384 0.999427
    outer loop
      vertex 53.498 -62 8
      vertex 52.502 -60.002 8.024
      vertex 52.498 -61 8
    endloop
  endfacet
  facet normal 0.0240825 -0.0241306 0.999419
    outer loop
      vertex 52.498 -61 8
      vertex 52.502 -60.002 8.024
      vertex 51.5 -61.002 8.024
    endloop
  endfacet
  facet normal 0 0 -1
    outer loop
      vertex 47.5 -38.846 0.00199986
      vertex 49.5 -25.376 0.00199986
      vertex 49.5 -38.846 0.00199986
    endloop
  endfacet
  facet normal 0 0 -1
    outer loop
      vertex 25.75 -28.768 0.00199986
      vertex 49.5 -25.376 0.00199986
      vertex 47.5 -38.846 0.00199986
    endloop
  endfacet
  facet normal -0 0 -1
    outer loop
      vertex 49.5 -25.376 0.00199986
      vertex 25.75 -28.768 0.00199986
      vertex 49.5 -21.196 0.00199986
    endloop
  endfacet
  facet normal -0 0 -1
    outer loop
      vertex 49.5 -21.196 0.00199986
      vertex 25.75 -28.768 0.00199986
      vertex 49.5 -20.916 0.00199986
    endloop
  endfacet
  facet normal 0 0 -1
    outer loop
      vertex 24.75 -15.018 0.00199986
      vertex 49.5 -20.916 0.00199986
      vertex 25.75 -28.768 0.00199986
    endloop
  endfacet
  facet normal 0 0 -1
    outer loop
      vertex 49.5 -20.916 0.00199986
      vertex 24.75 -15.018 0.00199986
      vertex 49.5 -18.69 0.00199986
    endloop
  endfacet
  facet normal 0 0 -1
    outer loop
      vertex -0.0019989 -11.346 0.00199986
      vertex 25.75 -28.768 0.00199986
      vertex 1.998 -38.846 0.00199986
    endloop
  endfacet
  facet normal 0 0 -1
    outer loop
      vertex -0.0019989 -11.346 0.00199986
      vertex 1.998 -38.846 0.00199986
      vertex -0.0019989 -38.846 0.00199986
    endloop
  endfacet
  facet normal 0 0 -1
    outer loop
      vertex 25.75 -28.768 0.00199986
      vertex -0.0019989 -11.346 0.00199986
      vertex 24.75 -15.018 0.00199986
    endloop
  endfacet
  facet normal -4.6701e-05 0.780887 -0.624672
    outer loop
      vertex -0.0019989 0 5
      vertex 23.75 -3 1.248
      vertex -2.002 -2 2.5
    endloop
  endfacet
  facet normal -5.04824e-05 0.780849 -0.62472
    outer loop
      vertex -27.75 -1 3.748
      vertex -49.5 -4 0
      vertex -53.5 0 5
    endloop
  endfacet
  facet normal -5.04824e-05 0.780849 -0.62472
    outer loop
      vertex -27.75 -1 3.748
      vertex -25.75 -3 1.248
      vertex -49.5 -4 0
    endloop
  endfacet
  facet normal 8.0809e-05 0 -1
    outer loop
      vertex -24.75 -7.674 0
      vertex -0.0019989 -38.846 0.00199986
      vertex -24.75 -48.924 0
    endloop
  endfacet
  facet normal 8.0809e-05 0 -1
    outer loop
      vertex -0.0019989 -38.846 0.00199986
      vertex -24.75 -7.674 0
      vertex -0.0019989 -11.346 0.00199986
    endloop
  endfacet
  facet normal 4.04232e-05 -0.000272312 -1
    outer loop
      vertex 24.75 -7.674 0
      vertex 49.5 -4 0
      vertex 24.75 -15.018 0.00199986
    endloop
  endfacet
  facet normal -4.03979e-05 -0.000272312 -1
    outer loop
      vertex 24.75 -7.674 0
      vertex 24.75 -15.018 0.00199986
      vertex -0.0019989 -11.346 0.00199986
    endloop
  endfacet
  facet normal 0 0.780381 -0.625305
    outer loop
      vertex -25.75 -3 1.248
      vertex -24.75 -4 0
      vertex -49.5 -4 0
    endloop
  endfacet
  facet normal 0 0.780381 -0.625305
    outer loop
      vertex 23.75 -3 1.248
      vertex 49.5 -4 0
      vertex -0.0019989 -4 0
    endloop
  endfacet
  facet normal -2.435e-05 -0.002 0.999998
    outer loop
      vertex -20.702 -0.251999 8
      vertex -41.4 0 8
      vertex -41.4 -1 7.998
    endloop
  endfacet
  facet normal -0.000152303 0.00399997 0.999992
    outer loop
      vertex -0.0019989 -56.5 6.986
      vertex -0.0019989 -56 6.984
      vertex -19.752 -56.252 6.982
    endloop
  endfacet
  facet normal 0.000102873 0.015998 0.999872
    outer loop
      vertex 19.748 -56.752 6.988
      vertex -0.0019989 -56.5 6.986
      vertex -0.0019989 -57 6.994
    endloop
  endfacet
  facet normal 0.000101253 0.0161269 0.99987
    outer loop
      vertex -0.0019989 -57 6.994
      vertex -19.752 -56.752 6.992
      vertex -19.752 -57 6.996
    endloop
  endfacet
  facet normal -0.000202511 0 1
    outer loop
      vertex 39.5 -56 6.99
      vertex 19.748 -56 6.986
      vertex 19.748 -56.252 6.986
    endloop
  endfacet
  facet normal -0.000101266 0 1
    outer loop
      vertex 19.748 -56.252 6.986
      vertex 19.748 -56 6.986
      vertex -0.0019989 -56 6.984
    endloop
  endfacet
  facet normal 0.780869 0 -0.624695
    outer loop
      vertex 53.498 0 5
      vertex 53.498 -31 5
      vertex 51.498 -29.5 2.5
    endloop
  endfacet
  facet normal 0.0240894 -0 0.99971
    outer loop
      vertex 53.498 -62 8
      vertex 53.498 -31 8
      vertex 52.502 -60.002 8.024
    endloop
  endfacet
  facet normal 0.0200763 -0 0.999798
    outer loop
      vertex 53.498 -31 8
      vertex 53.498 0 8
      vertex 53 -30.002 8.01
    endloop
  endfacet
  facet normal -0.000965384 0.000482692 0.999999
    outer loop
      vertex 52.502 -60.002 8.024
      vertex 53 -30.002 8.01
      vertex 52.5 -31.002 8.01
    endloop
  endfacet
  facet normal 0.00203377 3.39003e-05 0.999998
    outer loop
      vertex -52.5 -1 7.998
      vertex -53.2767 -13.4 8
      vertex -53 -30 8
    endloop
  endfacet
  facet normal 0.00203383 3.38971e-05 0.999998
    outer loop
      vertex -52.5 -1 7.998
      vertex -53.3767 -7.4 8
      vertex -53.2767 -13.4 8
    endloop
  endfacet
  facet normal 0.00203388 3.38889e-05 0.999998
    outer loop
      vertex -53.3767 -7.4 8
      vertex -52.5 -1 7.998
      vertex -53.5 0 8
    endloop
  endfacet
  facet normal 0.780884 5.03796e-05 -0.624677
    outer loop
      vertex 51.498 -29.5 2.5
      vertex 53.498 -31 5
      vertex 49.5 -59 0
    endloop
  endfacet
  facet normal 0.780916 -8.27027e-06 -0.624636
    outer loop
      vertex 53.498 0 5
      vertex 51.498 -29.5 2.5
      vertex 49.5 -21.196 0.00199986
    endloop
  endfacet
  facet normal 0.00203448 3.44827e-05 0.999998
    outer loop
      vertex -51.5 -61 11.998
      vertex -52 -31.5 11.998
      vertex -52.5 -60 12
    endloop
  endfacet
  facet normal -1 3.44828e-05 0.0005
    outer loop
      vertex -52.5 -60 12
      vertex -52.5 -31 10
      vertex -52.502 -60 8
    endloop
  endfacet
  facet normal -0.000689607 0.000344804 1
    outer loop
      vertex 53 -30.002 8.01
      vertex 52.5 -2 8
      vertex 52.5 -31.002 8.01
    endloop
  endfacet
  facet normal 1 6.89655e-05 -6.9312e-08
    outer loop
      vertex 52.5 -31 10
      vertex 52.502 -60.002 8.024
      vertex 52.5 -31.002 8.01
    endloop
  endfacet
  facet normal 0 0.781356 -0.624086
    outer loop
      vertex -26.75 0 5
      vertex -27.75 -1 3.748
      vertex -53.5 0 5
    endloop
  endfacet
  facet normal 9.33211e-05 0.781319 -0.624131
    outer loop
      vertex 24.75 -2 2.5
      vertex 23.75 -3 1.248
      vertex -0.0019989 0 5
    endloop
  endfacet
  facet normal 9.33281e-05 0.781319 -0.624131
    outer loop
      vertex 24.75 -2 2.5
      vertex 49.5 -4 0
      vertex 23.75 -3 1.248
    endloop
  endfacet
  facet normal -5.04783e-05 0.780849 -0.62472
    outer loop
      vertex 23.75 -3 1.248
      vertex -0.0019989 -4 0
      vertex -2.002 -2 2.5
    endloop
  endfacet
  facet normal 9.33351e-05 0.781319 -0.624132
    outer loop
      vertex -26.75 0 5
      vertex -2.002 -2 2.5
      vertex -27.75 -1 3.748
    endloop
  endfacet
  facet normal 4.39446e-05 9.48586e-05 -1
    outer loop
      vertex 25.75 -28.768 0.00199986
      vertex 45.5 -59 0
      vertex 23.75 -48.924 0
    endloop
  endfacet
  facet normal -4.39491e-05 0.00010358 -1
    outer loop
      vertex 25.75 -28.768 0.00199986
      vertex 23.75 -48.924 0
      vertex 1.998 -38.846 0.00199986
    endloop
  endfacet
  facet normal -2.01979e-05 -0.000136138 -1
    outer loop
      vertex 49.5 -4 0
      vertex 49.5 -18.69 0.00199986
      vertex 24.75 -15.018 0.00199986
    endloop
  endfacet
  facet normal 5.04825e-05 0.780889 -0.62467
    outer loop
      vertex -2.002 -2 2.5
      vertex -25.75 -3 1.248
      vertex -27.75 -1 3.748
    endloop
  endfacet
  facet normal -9.66277e-05 0 1
    outer loop
      vertex -20.702 -1 8
      vertex -20.702 -0.251999 8
      vertex -41.4 -1 7.998
    endloop
  endfacet
  facet normal -0.000101276 0 1
    outer loop
      vertex -19.752 -56.252 6.982
      vertex -19.752 -56 6.982
      vertex -39.5 -56 6.98
    endloop
  endfacet
  facet normal 9.96328e-05 0.015998 0.999872
    outer loop
      vertex -0.0019989 -57 6.994
      vertex -0.0019989 -56.5 6.986
      vertex -19.752 -56.752 6.992
    endloop
  endfacet
  facet normal 4.85979e-05 0.019996 0.9998
    outer loop
      vertex -0.0019989 -56.5 6.986
      vertex -19.752 -56.252 6.982
      vertex -19.752 -56.752 6.992
    endloop
  endfacet
  facet normal -5.02274e-05 0.00399997 0.999992
    outer loop
      vertex -0.0019989 -56.5 6.986
      vertex 19.748 -56.252 6.986
      vertex -0.0019989 -56 6.984
    endloop
  endfacet
  facet normal -5.02274e-05 0.00399997 0.999992
    outer loop
      vertex 19.748 -56.252 6.986
      vertex -0.0019989 -56.5 6.986
      vertex 19.748 -56.752 6.988
    endloop
  endfacet
  facet normal 0.000101242 0.0161269 0.99987
    outer loop
      vertex 39.5 -57 6.99
      vertex 19.748 -56.752 6.988
      vertex 19.748 -57 6.992
    endloop
  endfacet
  facet normal -0.000253542 0.00399997 0.999992
    outer loop
      vertex 39.5 -56 6.99
      vertex 19.748 -56.252 6.986
      vertex 19.748 -56.752 6.988
    endloop
  endfacet
  facet normal 0.000101253 0.0161269 0.99987
    outer loop
      vertex 19.748 -57 6.992
      vertex 19.748 -56.752 6.988
      vertex -0.0019989 -57 6.994
    endloop
  endfacet
  facet normal 0.000101263 0.0161269 0.99987
    outer loop
      vertex -19.752 -57 6.996
      vertex -19.752 -56.752 6.992
      vertex -39.5 -57 6.998
    endloop
  endfacet
  facet normal -0.000101266 0 1
    outer loop
      vertex -0.0019989 -56 6.984
      vertex -19.752 -56 6.982
      vertex -19.752 -56.252 6.982
    endloop
  endfacet
  facet normal -0.309013 -0.951058 0
    outer loop
      vertex -0.869693 -9.43187 2
      vertex 0.332192 -9.82238 6.8
      vertex -0.869693 -9.43187 6.8
    endloop
  endfacet
  facet normal -0.309013 -0.951058 -0
    outer loop
      vertex 0.332192 -9.82238 6.8
      vertex -0.869693 -9.43187 2
      vertex 0.332192 -9.82238 2
    endloop
  endfacet
  facet normal -0.30902 0.951056 0
    outer loop
      vertex 0.332192 -7.77761 2
      vertex -0.869693 -8.16813 6.8
      vertex 0.332192 -7.77761 6.8
    endloop
  endfacet
  facet normal -0.30902 0.951056 0
    outer loop
      vertex -0.869693 -8.16813 6.8
      vertex 0.332192 -7.77761 2
      vertex -0.869693 -8.16813 2
    endloop
  endfacet
  facet normal 0.809018 0.587784 0
    outer loop
      vertex 1.075 -8.8 6.8
      vertex 0.332192 -7.77761 2
      vertex 0.332192 -7.77761 6.8
    endloop
  endfacet
  facet normal 0.809018 0.587784 0
    outer loop
      vertex 0.332192 -7.77761 2
      vertex 1.075 -8.8 6.8
      vertex 1.075 -8.8 2
    endloop
  endfacet
  facet normal -1 0 0
    outer loop
      vertex -0.869693 -9.43187 2
      vertex -0.869693 -8.16813 6.8
      vertex -0.869693 -8.16813 2
    endloop
  endfacet
  facet normal -1 -0 0
    outer loop
      vertex -0.869693 -8.16813 6.8
      vertex -0.869693 -9.43187 2
      vertex -0.869693 -9.43187 6.8
    endloop
  endfacet
  facet normal 0 0 1
    outer loop
      vertex 0.332192 -7.77761 6.8
      vertex 0.332192 -9.82238 6.8
      vertex 1.075 -8.8 6.8
    endloop
  endfacet
  facet normal -0 0 1
    outer loop
      vertex -0.869693 -8.16813 6.8
      vertex 0.332192 -9.82238 6.8
      vertex 0.332192 -7.77761 6.8
    endloop
  endfacet
  facet normal 0 0 1
    outer loop
      vertex 0.332192 -9.82238 6.8
      vertex -0.869693 -8.16813 6.8
      vertex -0.869693 -9.43187 6.8
    endloop
  endfacet
  facet normal 0.809015 -0.587788 0
    outer loop
      vertex 0.332192 -9.82238 6.8
      vertex 1.075 -8.8 2
      vertex 1.075 -8.8 6.8
    endloop
  endfacet
  facet normal 0.809015 -0.587788 0
    outer loop
      vertex 1.075 -8.8 2
      vertex 0.332192 -9.82238 6.8
      vertex 0.332192 -9.82238 2
    endloop
  endfacet
  facet normal 0 -1 0
    outer loop
      vertex -52.5 -7.00001 8.39999
      vertex -51.5 -7.00001 9.3168
      vertex -52.5 -7.00001 9.3168
    endloop
  endfacet
  facet normal 0 -1 -0
    outer loop
      vertex -51.5 -7.00001 9.3168
      vertex -52.5 -7.00001 8.39999
      vertex -51.5 -7.00001 8.39999
    endloop
  endfacet
  facet normal 0 -0.917069 0.398729
    outer loop
      vertex -52.5 -7.00001 9.3168
      vertex -51.5 -6.53318 10.3905
      vertex -52.5 -6.53318 10.3905
    endloop
  endfacet
  facet normal 0 -0.917069 0.398729
    outer loop
      vertex -51.5 -6.53318 10.3905
      vertex -52.5 -7.00001 9.3168
      vertex -51.5 -7.00001 9.3168
    endloop
  endfacet
  facet normal 0 -0.979053 0.203606
    outer loop
      vertex -52.5 -6.53318 10.3905
      vertex -51.5 -6.50001 10.55
      vertex -52.5 -6.50001 10.55
    endloop
  endfacet
  facet normal 0 -0.979053 0.203606
    outer loop
      vertex -51.5 -6.50001 10.55
      vertex -52.5 -6.53318 10.3905
      vertex -51.5 -6.53318 10.3905
    endloop
  endfacet
  facet normal 0 -1 0
    outer loop
      vertex -52.5 -6.50001 10.55
      vertex -51.5 -6.50001 11.6
      vertex -52.5 -6.50001 11.6
    endloop
  endfacet
  facet normal 0 -1 -0
    outer loop
      vertex -51.5 -6.50001 11.6
      vertex -52.5 -6.50001 10.55
      vertex -51.5 -6.50001 10.55
    endloop
  endfacet
  facet normal 0 -0.707098 -0.707116
    outer loop
      vertex -52.5 -6.50001 11.6
      vertex -51.5 -6.89802 11.998
      vertex -52.5 -6.89802 11.998
    endloop
  endfacet
  facet normal 0 -0.707098 -0.707116
    outer loop
      vertex -51.5 -6.89802 11.998
      vertex -52.5 -6.50001 11.6
      vertex -51.5 -6.50001 11.6
    endloop
  endfacet
  facet normal 0 0.707107 -0.707107
    outer loop
      vertex -51.5 -14.3 11.6
      vertex -52.5 -13.902 11.998
      vertex -51.5 -13.902 11.998
    endloop
  endfacet
  facet normal 0 0.707107 -0.707107
    outer loop
      vertex -52.5 -13.902 11.998
      vertex -51.5 -14.3 11.6
      vertex -52.5 -14.3 11.6
    endloop
  endfacet
  facet normal 0 1 -0
    outer loop
      vertex -51.5 -14.3 10.55
      vertex -52.5 -14.3 11.6
      vertex -51.5 -14.3 11.6
    endloop
  endfacet
  facet normal 0 1 0
    outer loop
      vertex -52.5 -14.3 11.6
      vertex -51.5 -14.3 10.55
      vertex -52.5 -14.3 10.55
    endloop
  endfacet
  facet normal 0 0.979016 0.203783
    outer loop
      vertex -51.5 -14.2668 10.3905
      vertex -52.5 -14.3 10.55
      vertex -51.5 -14.3 10.55
    endloop
  endfacet
  facet normal 0 0.979016 0.203783
    outer loop
      vertex -52.5 -14.3 10.55
      vertex -51.5 -14.2668 10.3905
      vertex -52.5 -14.2668 10.3905
    endloop
  endfacet
  facet normal 0 0.917078 0.398707
    outer loop
      vertex -51.5 -13.8 9.3168
      vertex -52.5 -14.2668 10.3905
      vertex -51.5 -14.2668 10.3905
    endloop
  endfacet
  facet normal 0 0.917078 0.398707
    outer loop
      vertex -52.5 -14.2668 10.3905
      vertex -51.5 -13.8 9.3168
      vertex -52.5 -13.8 9.3168
    endloop
  endfacet
  facet normal 0 1 -0
    outer loop
      vertex -51.5 -13.8 8.39999
      vertex -52.5 -13.8 9.3168
      vertex -51.5 -13.8 9.3168
    endloop
  endfacet
  facet normal 0 1 0
    outer loop
      vertex -52.5 -13.8 9.3168
      vertex -51.5 -13.8 8.39999
      vertex -52.5 -13.8 8.39999
    endloop
  endfacet
  facet normal 0 0.707098 0.707116
    outer loop
      vertex -51.5 -13.4 8
      vertex -52.5 -13.8 8.39999
      vertex -51.5 -13.8 8.39999
    endloop
  endfacet
  facet normal 0 0.707098 0.707116
    outer loop
      vertex -52.5 -13.8 8.39999
      vertex -51.5 -13.4 8
      vertex -52.5 -13.4 8
    endloop
  endfacet
  facet normal 0 -0.707107 0.707107
    outer loop
      vertex -52.5 -7.4 8
      vertex -51.5 -7.00001 8.39999
      vertex -52.5 -7.00001 8.39999
    endloop
  endfacet
  facet normal 0 -0.707107 0.707107
    outer loop
      vertex -51.5 -7.00001 8.39999
      vertex -52.5 -7.4 8
      vertex -51.5 -7.4 8
    endloop
  endfacet
endsolid OpenSCAD_Model
